<?xml version="1.0" encoding="UTF-8" standalone="no"?>
<!-- Created with Inkscape (http://www.inkscape.org/) -->

<svg
   width="71mm"
   height="12mm"
   viewBox="0 0 71 12"
   version="1.1"
   id="svg5"
   sodipodi:docname="fusemblr.svg"
   inkscape:version="1.1.2 (0a00cf5339, 2022-02-04)"
   xmlns:inkscape="http://www.inkscape.org/namespaces/inkscape"
   xmlns:sodipodi="http://sodipodi.sourceforge.net/DTD/sodipodi-0.dtd"
   xmlns="http://www.w3.org/2000/svg"
   xmlns:svg="http://www.w3.org/2000/svg">
  <sodipodi:namedview
     id="namedview7"
     pagecolor="#ffffff"
     bordercolor="#666666"
     borderopacity="1.0"
     inkscape:pageshadow="2"
     inkscape:pageopacity="0.0"
     inkscape:pagecheckerboard="0"
     inkscape:document-units="mm"
     showgrid="false"
     inkscape:zoom="3.9408307"
     inkscape:cx="113.55474"
     inkscape:cy="-2.1569057"
     inkscape:window-width="1850"
     inkscape:window-height="1016"
     inkscape:window-x="0"
     inkscape:window-y="0"
     inkscape:window-maximized="1"
     inkscape:current-layer="layer1" />
  <defs
     id="defs2" />
  <g
     inkscape:label="Layer 1"
     inkscape:groupmode="layer"
     id="layer1">
    <text
       xml:space="preserve"
       style="font-size:16.9333px;line-height:1.25;font-family:sans-serif;fill:#7c7c7c;fill-opacity:1;stroke-width:0.264583"
       x="8.3197279"
       y="10.881041"
       id="text3224-3"><tspan
         sodipodi:role="line"
         id="tspan3222-6"
         style="font-style:italic;font-variant:normal;font-weight:normal;font-stretch:normal;font-size:16.9333px;font-family:NATS;-inkscape-font-specification:'NATS Italic';fill:#7c7c7c;fill-opacity:1;stroke-width:0.264583"
         x="8.3197279"
         y="10.881041">fusemblr</tspan></text>
    <rect
       style="fill:#7c7c7c;fill-opacity:1;stroke-width:0;stroke-miterlimit:4;stroke-dasharray:none;stroke-dashoffset:0;stop-color:#000000"
       id="rect42171"
       width="8.5089264"
       height="0.96139979"
       x="1.6610154"
       y="3.9585755"
       ry="0"
       transform="matrix(1,0,-0.19904106,0.97999115,0,0)" />
    <rect
       style="fill:#7c7c7c;fill-opacity:1;stroke-width:0;stroke-miterlimit:4;stroke-dasharray:none;stroke-dashoffset:0;stop-color:#000000"
       id="rect42171-8"
       width="8.5089264"
       height="1.0770864"
       x="62.526405"
       y="3.7460983"
       ry="0"
       transform="matrix(1,0,-0.17766266,0.98409145,0,0)" />
    <path
       style="fill:none;stroke:#ff6e00;stroke-width:0.264583px;stroke-linecap:round;stroke-linejoin:miter;stroke-opacity:1"
       d="m 1.5741648,4.3377889 c 0.217326,-0.0137 0.438388,0.0179 0.65537,0 0.08725,-0.007 0.175641,-0.0353 0.261202,-0.0476 0.09201,-0.0131 0.193752,-0.006 0.284848,-0.0237 0.1789108,-0.0358 0.3453018,-0.0982 0.5222188,-0.14242 0.08171,-0.0204 0.166684,-0.0101 0.250025,-0.024 0.03218,-0.005 0.07301,0.004 0.105383,3.1e-4 0.182391,-0.0228 0.390057,0.001 0.569693,0.0237 0.06504,0.008 0.125601,0.041 0.190823,0.0475 0.09912,0.01 0.188042,0.01 0.2848477,0.0237 0.09596,0.0137 0.162636,0.0589 0.261109,0.0712 0.364686,0.0456 0.736484,0.11867 1.093581,0.19009 0.165262,0.0331 0.376859,0 0.545955,0 0.12038,0 0.260493,0.0199 0.379796,0 0.18565,-0.0309 0.363484,-0.0645 0.54605,-0.095 0.05389,-0.009 0.106469,-0.0155 0.160357,-0.0245 0.104436,-0.0174 0.211737,-0.002 0.314387,-0.023 0.05431,-0.0109 0.105366,-0.009 0.160195,-0.0174 0.01752,-0.002 0.03592,-0.004 0.05343,-0.006 0.120091,-0.0171 0.258535,0 0.379796,0 h 0.83136 c 0.141957,0 0.5006711,-0.0335 0.6347827,0 0.124177,0.031 0.399286,0.0544 0.521849,0.0237 0.0077,-0.002 0.0074,0.006 0.01488,0.004 0.102274,-0.0341 0.212278,-0.0253 0.316881,-0.051 0.06935,-0.0174 0.14436,-0.007 0.213265,-0.0237 0.01082,-0.003 0.01283,-0.0209 0.02365,-0.0237 0.03059,-0.008 0.06468,0.01 0.09458,0 0.196223,-0.0656 0.523398,-0.0387 0.708406,0.0237 0.05642,0.019 0.131921,-0.0188 0.188415,0 0.01048,0.004 0.01257,0.0211 0.02336,0.0235 0.07358,0.0158 0.173355,0 0.250077,0 0.168216,0 -0.0403,-0.006 0.166161,0.0237 0.148008,0.0211 0.305837,-0.0126 0.451006,0.0237 0.01085,0.003 0.01336,0.0196 0.02373,0.0237 0.07834,0.0313 0.139441,0.005 0.213632,0.0237 0.04999,0.0125 0.09346,0.0549 0.142426,0.0712 0.03561,0.0119 0.02373,-0.0237 0.07121,0 0.0071,0.004 -0.0066,0.0193 0,0.0237 0.106926,0.0713 0.24186,0.0994 0.332322,0.1899 0.02445,0.0244 0.02305,0.0468 0.04747,0.0712 0.03476,0.0348 0.09078,0.0768 0.118686,0.11868 0.05094,0.0764 0.08739,0.16394 0.14233,0.23719 0.04951,0.066 0.125207,0.15128 0.142423,0.23737 0.02286,0.11427 0.05603,0.23881 0.09476,0.3553197 0.01336,0.0402 -0.01897,0.1036102 0,0.1409402 0.03911,0.077 0.05249,0.35962 0.02355,0.44609 -0.04718,0.14098 -0.05824,0.28024 -0.09495,0.42709 -0.01423,0.0569 -0.05475,0.11648 -0.07121,0.16588 -0.02633,0.079 -0.02114,0.18212 -0.04747,0.26111 -0.01648,0.0495 -0.05697,0.10918 -0.07121,0.16616 -0.02508,0.10029 -0.0367,0.2038 -0.07093,0.30636 -0.03809,0.11413 0.0082,0.4622104 -0.02355,0.5892504 -0.116943,0.467319 0.0521,0.949319 0.189807,1.363499 0.02032,0.0612 0.103711,0.11905 0.136118,0.17887 0.0032,0.006 0,0.0133 0,0.0199 0.01416,0.0287 0.02296,0.0607 0.04247,0.0861 0.0048,0.006 0.01815,-0.006 0.02373,0 0.03968,0.0397 0.04528,0.10085 0.07112,0.14057 0.08066,0.1239698 0.01024,0.0155 0.06518,0.0434 0.100653,0.051 -0.0266,-0.003 0.02373,0.047 0.05573,0.0556 0.163417,0.11777 0.236816,0.14224 0.06471,0.0216 0.150381,0.0161 0.213264,0.0474 0.118195,0.0587 0.230426,0.10036 0.35578,0.14215 0.064,0.0213 0.149395,-0.0214 0.213358,0 0.01998,0.007 0.07654,0.0439 0.09458,0.0475 0.07076,0.0142 0.122394,0.007 0.189897,0.0237 0.0744,0.0186 0.162777,-0.0186 0.237186,0 0.219728,0.0549 0.754081,0.0449 0.930481,-0.0869 7.94e-4,-5.3e-4 0.08981,-0.0235 0.08994,-0.0237 0.0048,-0.006 -0.0053,-0.0171 0,-0.0222 0.02958,-0.0287 0.07689,-0.006 0.09476,-0.0237 0.0081,-0.008 0.0097,-0.0325 0.019,-0.0392 0.06817,-0.0492 0.155771,-0.0385 0.212058,-0.0947 0.0056,-0.006 -0.0056,-0.018 0,-0.0236 0.03812,-0.038 0.103167,-0.0214 0.142145,-0.0475 0.02792,-0.0186 0.04119,-0.0562 0.07121,-0.0712 0.07509,-0.0376 0.322207,-0.1566898 0.364402,-0.1987998 0.01241,-0.0124 0.0099,-0.0359 0.02347,-0.047 0.04872,-0.0401 0.163904,-0.0502 0.205383,-0.0911 0.0056,-0.005 -0.007,-0.0199 0,-0.0234 0.01402,-0.007 0.03301,0.007 0.04701,0 0.007,-0.004 -0.0066,-0.0193 0,-0.0237 0.03118,-0.0208 0.08712,-0.0317 0.118316,-0.0473 0.02667,-0.0134 0.0431,-0.0618 0.07121,-0.0712 0.01503,-0.005 0.03246,0.005 0.04747,0 0.06603,-0.022 0.132845,-0.10416 0.189529,-0.14215 0.08249,-0.0553 0.171247,-0.10634 0.260274,-0.1657 0.137951,-0.092 0.343053,-0.13507 0.498483,-0.16616 0.08832,-0.0177 0.174154,-0.0733 0.260831,-0.0949 0.03549,-0.009 0.0832,0.0117 0.118036,0 0.228669,-0.0765 0.662921,-0.0103 0.858528,0.0865 0.02999,0.0148 0.04444,0.0507 0.07121,0.0707 0.185761,0.13932 0.390578,0.30102 0.522219,0.49849 0.02416,0.0362 0.07071,0.035 0.09486,0.0712 0.0079,0.0158 0.01582,0.0316 0.02373,0.0474 0,0.008 -0.0035,0.0167 0,0.0237 0.03018,0.0603 0.120314,0.0762 0.161153,0.13742 0.118822,0.1782298 0.521422,0.3972798 0.735576,0.4508198 0.04741,0.0119 0.101544,0.061 0.142422,0.0712 0.06603,0.0165 0.147527,0.007 0.213543,0.0237 0.01082,0.003 0.01299,0.0202 0.02355,0.0237 0.100296,0.0335 0.32159,0 0.444053,0 0.01535,0 0.03529,0.0109 0.04608,0 0.0056,-0.006 -0.0056,-0.0182 0,-0.0237 0.04255,-0.0425 0.118557,-0.025 0.165047,-0.0474 0.03204,-0.007 0.03703,-0.0514 0.06435,-0.0648 0.04046,-0.0199 0.103997,-0.0284 0.14224,-0.0475 0.03001,-0.0149 0.04439,-0.0509 0.07121,-0.071 0.03471,-0.026 0.08408,-0.0307 0.118131,-0.0475 0.0483,-0.0239 0.06192,-0.0851 0.09495,-0.11812 0.05775,-0.0577 0.14232,-0.0948 0.189897,-0.1661598 0.09109,-0.13664 0.212556,-0.25862 0.284662,-0.40326 0.02694,-0.054 0.03685,-0.11461 0.07121,-0.16616 0.01238,-0.0186 0.04033,-0.0261 0.04738,-0.0473 0.005,-0.015 -0.007,-0.0332 0,-0.0474 0.0035,-0.007 0.01802,0.006 0.02355,0 0.06234,-0.0626 0.141012,-0.22711 0.189897,-0.30858 0.06359,-0.10599 0.115858,-0.23354 0.189806,-0.33214 0.04653,-0.062 0.119634,-0.10413 0.166159,-0.16616 0.02122,-0.0283 0.02246,-0.0699 0.04747,-0.095 0.02225,-0.0222 0.07389,-0.0396 0.09495,-0.0712 0.04858,-0.0729 0.11443,-0.16332 0.189897,-0.2136398 0.02944,-0.0196 0.06993,-0.0225 0.09495,-0.0475 0.02019,-0.0202 0.0273,-0.051 0.04747,-0.0712 0.06411,-0.0641 0.164415,-0.13518 0.237374,-0.1899 0.02,-0.015 0.05119,-0.009 0.07121,-0.0237 0.0937,-0.0703 0.184126,-0.10573 0.284848,-0.16617 0.01918,-0.0115 0.02746,-0.0375 0.04747,-0.0475 0.01416,-0.007 0.03212,0.004 0.04747,0 0.173421,-0.0434 0.348922,-0.0991 0.521848,-0.14242 0.11189,-0.0281 0.241679,0.019 0.355873,0 0.717645,-0.11961 1.474163,-0.0712 2.208487,-0.0712 0.109178,0 0.203161,-0.0299 0.308584,-0.0475 0.08596,-0.0143 0.174987,-0.009 0.261109,-0.0237 0.170678,-0.0284 0.351378,0.005 0.522219,-0.0237 0.199419,-0.0332 0.416274,0.0184 0.618003,0 0.644864,-0.0588 1.294395,-0.0477 1.945061,-0.0477"
       id="path57096"
       sodipodi:nodetypes="ccccscccccccscscsccssscscccssccsccccccsccssssssssssscsccccsccscccccscccscccccsccscscsssssccccsccsccsccscccccscsssssccssscssscscsccccscccsc" />
    <path
       style="fill:none;stroke:#ff7500;stroke-width:0.264583px;stroke-linecap:round;stroke-linejoin:miter;stroke-opacity:1"
       d="m 32.921878,7.1125388 c 0.09451,-0.0289 0.201732,-0.0159 0.295196,-0.0366 0.214103,-0.0476 0.374202,-0.1536 0.569692,-0.23738 0.31472,-0.13488 0.615969,-0.28404 0.902015,-0.47474 0.05078,-0.0339 0.115816,-0.041 0.166161,-0.0712 0.103532,-0.0621 0.207346,-0.16149 0.308399,-0.23728 0.06703,-0.0503 0.165748,-0.14228 0.213264,-0.21317 0.03357,-0.0501 -0.05391,0.005 0.02373,-0.047 0.06245,-0.0416 0.321386,-0.2565799 0.356057,-0.3085899 0.0044,-0.007 -0.0056,-0.0181 0,-0.0237 0.02019,-0.0202 0.05104,-0.0273 0.07121,-0.0475 0.04422,-0.0442 0.07337,-0.12084 0.118687,-0.16616 0.05795,-0.058 0.117131,-0.0812 0.165973,-0.14223 0.03772,-0.0472 0.06623,-0.10745 0.118687,-0.14243 0.05116,-0.0341 0.129182,-0.0818 0.165512,-0.11813 0.01252,-0.0125 0.01122,-0.035 0.02373,-0.0475 0.06388,-0.0639 0.165783,-0.0851 0.237374,-0.14242 0.154805,-0.12385 0.398182,-0.25987 0.593058,-0.30859 0.07533,-0.0188 0.13479,-0.0792 0.213635,-0.095 0.06645,-0.0133 0.130842,-0.0279 0.189434,-0.0475 0.03002,-0.01 0.06492,0.01 0.09495,0 0.01061,-0.004 0.01289,-0.021 0.02373,-0.0237 0.04039,-0.0101 0.420526,-0.0211 0.463616,0 0.0068,0.003 -0.0068,0.0194 0,0.0227 0.0098,0.005 0.105,0.0193 0.118131,0.0237 0.033,0.011 0.08677,-0.0157 0.117665,0 0.02691,0.0137 0.06182,0.0382 0.08967,0.0434 0.02838,0.005 0.05875,-0.008 0.0866,0 0.0076,0.002 -0.0056,0.0181 0,0.0237 0.02151,0.0214 0.112787,0.0327 0.14196,0.0473 0.02794,0.0139 0.04478,0.0534 0.07084,0.0708 0.0085,0.0571 0.0489,0.0102 0.06945,0.0234 0.01447,0.0142 0.02893,0.0283 0.04339,0.0425 0,0.008 -0.0056,0.018 0,0.0235 0.01371,0.0136 0.08013,0.0336 0.09393,0.0475 0.0337,0.0338 0.05382,0.0769 0.09337,0.11655 0.01995,0.02 0.05297,0.0251 0.07019,0.0475 0.148706,-0.007 0.02201,0.074 0.04321,0.10551 0.01842,0.0274 0.08096,0.0405 0.08985,0.0671 0.005,0.015 -0.005,0.0325 0,0.0475 0.01312,0.0394 0.07857,0.0788 0.09449,0.0942 0.0177,0.0171 0.0062,0.0527 0.02365,0.0701 0.04867,0.0487 -0.0019,-0.0747 0.0471,0.0237 0.05758,0.11585 0.10379,0.17421 0.162917,0.25638 0.01262,0.0175 0.134646,0.0497 0.166251,0.0655 0.05354,0.0268 0.206983,0 0.269642,0 0.137194,0 0.232473,-0.0133 0.354666,-0.0635 2.65e-4,-1.6e-4 0.04682,1.6e-4 0.04701,0 0.05707,-0.0456 0.117631,-0.10099 0.201951,-0.15735 0.04676,0.002 0.01106,-0.0349 0.02355,-0.0474 0.158935,-0.15863 -0.01691,0.035 0.07121,-0.0237 0.03724,-0.0248 0.05772,-0.0701 0.09495,-0.0949 0.11426,-0.0763 0.142922,-0.11928 0.237095,-0.21345 0.04485,-0.0449 0.05005,-0.003 0.09486,-0.0475 0.02963,-0.0296 0.09393,-0.11327 0.142052,-0.14214 0.132858,-0.0797 0.265369,-0.14456 0.403532,-0.21364 0.06056,-0.0303 0.132186,-0.0187 0.189807,-0.0475 0.02545,-0.0127 0.04404,-0.0383 0.07103,-0.0473 0.02252,-0.007 0.0478,0.004 0.07121,0 0.05879,-0.01 0.110617,-0.0336 0.166161,-0.0475 0.133197,-0.0333 0.793872,-0.002 0.948468,0.0237 0.01593,0.003 0.120875,-0.0102 0.14196,0 0.0035,0.002 0.02535,0.0395 0.04664,0.0465 0.109173,0.0364 0.250587,0.0734 0.354759,0.14233 0.0063,0.004 0,0.0151 0,0.0227 0.0079,0.008 0.01373,0.0187 0.02373,0.0237 0.226547,0.11327 0.319183,0.30079 0.39806,0.53742 0.01259,0.0378 0.05873,0.0812 0.07112,0.11841 0.06381,0.19166 0.124151,0.37584 0.237371,0.5456797 0.02625,0.0394 0.06314,0.1580902 0.09495,0.1898902 0.04157,0.0416 0.108638,0.0624 0.142425,0.11869 0.01289,0.0215 0.01087,0.0498 0.02373,0.0712 0.04362,0.0727 0.133226,0.10949 0.189899,0.16616 0.05195,0.052 0.09586,0.13145 0.143341,0.19083 0.0475,0.0593 0.11869,0.0831 0.16616,0.14242 0.0573,0.0716 0.1113,0.16123 0.1899,0.21364 0.0294,0.0196 0.0699,0.0225 0.0949,0.0475 0.0621,0.0621 0.1012,0.14868 0.16616,0.21364 0.11332,0.11332 0.23066,0.20524 0.33232,0.33232 0.031,0.0387 0.0932,0.0762 0.11869,0.11868 0.0129,0.0215 0.0125,0.0488 0.0237,0.0712 0.0177,0.0354 0.13731,0.17516 0.16616,0.21364 0.0322,0.0429 0.10173,0.0916 0.11869,0.14242 0.005,0.015 -0.007,0.0333 0,0.0474 0.004,0.007 0.0181,-0.006 0.0237,0 0.0201,0.0202 0.0304,0.0484 0.0475,0.0712 0.0462,0.0615 0.065,0.1598 0.11868,0.213449 0.006,0.006 0.0157,0 0.0236,0 0.008,0.008 0.017,0.0148 0.0237,0.0237 0.004,0.005 0.0607,0.10806 0.0712,0.11859 0.0228,0.0228 0.1076,0.072 0.11739,0.11859 0.006,0.0276 -0.009,0.0577 0,0.0845 0.0581,0.17653 0.0179,-0.005 0.0651,0.0434 0.0222,0.0229 0.12053,0.2392 0.14075,0.28012 0.0148,0.03 0.0521,0.0434 0.0708,0.0712 0.0267,0.0398 0.0306,0.1015 0.0708,0.14186 0.006,0.006 0.018,-0.006 0.0236,0 0.0488,0.049 0.0629,0.12944 0.11284,0.17933 0.006,0.006 0.019,-0.006 0.0237,0 0.0212,0.0283 0.0293,0.0646 0.0475,0.095 0.0223,0.0372 0.0688,0.06 0.0949,0.0949 0.11176,0.149 0.22567,0.30075 0.3797,0.40344 0.12664,0.0844 0.27026,0.1470402 0.40327,0.2135402 0.0212,0.0106 0.0486,-0.008 0.0711,0 0.0371,0.0124 0.0812,0.035 0.11839,0.0474 0.0335,0.0112 0.0855,-0.0149 0.11739,0 0.071,0.0332 0.13627,0.0152 0.22161,0.0437 0.0353,0.0118 0.0824,-0.0118 0.11768,0 0.0584,0.0195 0.12376,0.049 0.18934,0.0709 0.0448,0.0149 0.0938,0.008 0.14158,0.0237 0.10987,0.0371 0.25524,-0.0282 0.36802,0 0.24486,0.0612 0.55286,0.0279 0.77897,-0.0475 0.0237,-0.008 0.0712,0.008 0.0949,0 0.0724,-0.0241 0.13435,-0.0675 0.21178,-0.0939 0.0139,-0.005 0.0309,0.007 0.0439,0 0.0323,-0.0168 0.0626,-0.0546 0.0949,-0.0712 0.0468,-0.024 0.0972,-0.0229 0.14864,-0.0626 0.006,-0.005 -0.007,-0.0202 0,-0.0237 0.0141,-0.007 0.0331,0.007 0.0473,0 0.007,-0.003 -0.005,-0.0175 0,-0.0229 0.0273,-0.0269 0.18395,-0.0851 0.21335,-0.095 0.0457,-0.0152 0.15714,-0.0627 0.18917,-0.0946 0.006,-0.006 -0.006,-0.018 0,-0.0236 0.0734,-0.0731 0.0192,0.0141 0.095,-0.0237 0.0255,-0.0127 0.0509,-0.0273 0.071,-0.0475 0.006,-0.006 -0.007,-0.02 0,-0.0236 0.0138,-0.007 0.0318,0.005 0.0465,0 0.0382,-0.0126 0.15639,-0.11328 0.21215,-0.14122 0.0993,-0.0497 -0.0257,0.002 0.0237,-0.0472 0.0177,-0.0176 0.0534,-0.006 0.071,-0.0237 0.006,-0.006 -0.006,-0.0181 0,-0.0237 0.0396,-0.0395 0.13039,-0.0595 0.16588,-0.0949 0.10585,-0.10564 0.20399,-0.22559 0.32231,-0.34391 0.0449,-0.0449 0.46994,-0.23415 0.37641,-0.23415 0.0975,-0.0623 0.2923,-0.33584 0.39217,-0.39295 0.0682,-0.039 0.12459,-0.10324 0.1899,-0.142419 0.0215,-0.0129 0.0498,-0.0109 0.0712,-0.0237 0.0384,-0.023 0.0549,-0.0749 0.095,-0.095 0.0142,-0.007 0.0333,0.007 0.0475,0 0.0456,-0.0228 0.18427,-0.12039 0.21364,-0.14242 0.0448,-0.0336 0.0686,-0.0937 0.11868,-0.1186908 0.0142,-0.007 0.0333,0.007 0.0475,0 0.061,-0.0305 0.1575,-0.14371 0.21363,-0.16616 0.14789,-0.0591 0.24527,-0.12395 0.3798,-0.21363 0.21857,-0.14572 -0.1106,0.079 0.0949,-0.0237 0.0475,-0.0237 0.0356,-0.0475 0.0712,-0.0712 0.11719,-0.0781 0.20672,-0.17457 0.33232,-0.23737 0.0272,-0.0136 0.033,-0.0495 0.0475,-0.0712 0.0258,-0.0386 0.0899,-0.0661 0.11832,-0.0946 0.0212,-0.0213 0.0332,-0.0699 0.0473,-0.091 0.0373,-0.0557 0.0824,-0.0598 0.11173,-0.0896 0.0423,-0.0431 0.0194,-0.065 0.0664,-0.11238 0.0142,-0.0144 0.0258,-0.0318 0.0424,-0.0435 0.005,-0.004 0.018,0.006 0.0195,0 0.006,-0.0274 -0.009,-0.0576 0,-0.0842 0.0196,-0.0593 0.0445,-0.0248 0.0657,-0.0669 0.0172,-0.0343 0.0256,-0.10092 0.0468,-0.13037 0.0276,-0.0383 0.0464,-0.0516 0.0648,-0.0894 0.022,-0.0452 0.008,-0.11473 0.0237,-0.16254 0.0524,-0.15583 0.12362,-0.26796 0.21308,-0.40205 0.0229,-0.0344 0.0659,-0.0422 0.0949,-0.0712 0.0287,-0.0287 0.0839,-0.0978 0.11869,-0.1186897 0.19394,-0.11636 0.39646,-0.23787 0.59343,-0.35606 0.0192,-0.0115 0.0275,-0.0375 0.0475,-0.0475 0.0142,-0.007 0.0328,0.006 0.0475,0 0.0964,-0.0386 0.18156,-0.0981 0.28457,-0.11869 0.031,-0.006 0.0649,0.01 0.0949,0 0.0547,-0.0182 0.11357,-0.0451 0.1656,-0.0711 0.0352,-0.0176 0.11804,-0.0101 0.15884,-0.0237 0.0439,-0.0147 0.15446,0 0.19407,0 0.0838,0 0.22306,-0.0263 0.302,0 0.15287,0.051 0.60602,0.0807 0.77303,0.0473 0.0667,-0.0134 0.13343,-0.0524 0.1899,-0.0712 0.13604,-0.0454 0.24987,-0.0538 0.37961,-0.11868 0.0217,-0.0109 0.13522,-0.0179 0.14103,-0.0237 0.005,-0.005 -0.006,-0.0186 0,-0.0228 0.022,-0.0144 0.21133,-0.0863 0.2371,-0.0949 0.11292,-0.0376 0.21678,-0.15113 0.33195,-0.18952 0.23568,-0.0786 0.49602,-0.1812 0.73464,-0.26074 0.0339,-0.0113 -0.0319,0.005 0,0 0.0761,-0.0311 0.28213,-0.0369 0.35578,-0.0475 0.11638,-0.0166 0.23937,0.0146 0.35606,0 0.33637,-0.042 0.68109,-0.0237 1.0207,-0.0237 h 1.6107 1.18742 c 0.1629,0 0.57111,-0.0352 0.71212,0 0.0629,0.0157 0.12674,0.0348 0.18989,0.0475 0.20542,0.0411 0.43549,-0.0411 0.64091,0 0.16134,0.0323 0.33427,-0.004 0.49848,0.0237 0.20171,0.0336 0.41002,0.0237 0.61717,0.0237 0.14731,0 0.72216,0.0361 0.83024,0 0.0335,-0.0112 0.0604,-0.0388 0.0947,-0.0474 0.0412,-0.0103 0.097,0.0141 0.13714,0 0.12357,-0.0434 0.28335,-0.0126 0.4002,-0.0712"
       id="path57135"
       sodipodi:nodetypes="ccscsssccscscssccssccccccscccccccccscssssccsssccccscccsssccscccccsssssscccssssssssscccsccccccscscscscsscssssccsccccccccccscsscccssccscsssccscccsscssscccccccssccscscccsscsccccscccscccscsscscssssc" />
    <ellipse
       style="fill:#ff6e00;fill-opacity:1;stroke:#ff0000;stroke-width:0.00543804;stroke-miterlimit:4;stroke-dasharray:none;stroke-dashoffset:0;stroke-opacity:1;stop-color:#000000"
       id="path58669"
       cx="-0.47394216"
       cy="4.3459139"
       rx="0.14243531"
       ry="0.20875017"
       transform="rotate(-25.179344)" />
    <path
       id="path58669-9"
       style="stroke:#ff0000;stroke-width:0.0141377;stop-color:#000000;stroke-opacity:1;fill:#ff6e00;fill-opacity:1"
       d="m 1.0769028,3.1408927 c 0.144738,0.5018046 0.203365,0.6428818 0.252087,0.8391051 0.04702,0.1894402 -0.291072,-0.2398961 -0.41500302,-0.7755251 -0.123932,-0.5356388 -0.08034,-0.9571748 -0.03379,-1.1641825 0.04281,-0.1904136 0.05046,0.5935744 0.19670602,1.1006025 z"
       sodipodi:nodetypes="sssss" />
    <path
       id="path58669-9-0"
       style="stroke:#ff0000;stroke-width:0.0141377;stop-color:#000000;stroke-opacity:1;fill:#ff6e00;fill-opacity:1"
       d="m 1.4111298,3.0937589 c 0.02219,0.5218 0.04585,0.67273 0.04688,0.87491 9.72e-4,0.19519 -0.226213,-0.30183 -0.220197,-0.85157 0.006,-0.54976 0.147888,-0.9491 0.241983,-1.13926 0.08655,-0.17493 -0.09112,0.5887 -0.06866,1.11592 z"
       sodipodi:nodetypes="sssss" />
    <path
       id="path58669-9-0-8"
       style="stroke:#ff0000;stroke-width:0.0141377;stop-color:#000000;stroke-opacity:1;fill:#ff6e00;fill-opacity:1"
       d="m 1.8008648,3.0618689 c -0.02219,0.5218 -0.04585,0.67273 -0.04688,0.87491 -9.72e-4,0.19519 0.226213,-0.30183 0.220197,-0.85157 -0.006,-0.54976 -0.147888,-0.9491 -0.241983,-1.13926 -0.08655,-0.17493 0.09112,0.5887 0.06866,1.11592 z"
       sodipodi:nodetypes="sssss" />
    <ellipse
       style="fill:#ff6e00;fill-opacity:1;stroke:#ff0000;stroke-width:0.00543804;stroke-miterlimit:4;stroke-dasharray:none;stroke-dashoffset:0;stroke-opacity:1;stop-color:#000000"
       id="path58669-3"
       cx="-3.3008122"
       cy="2.9839206"
       rx="0.14243531"
       ry="0.20875017"
       transform="matrix(-0.90498049,-0.42545306,-0.42545306,0.90498049,0,0)" />
  </g>
</svg>
