<?xml version="1.0" encoding="UTF-8" standalone="no"?>
<!-- Created with Inkscape (http://www.inkscape.org/) -->

<svg
   width="71mm"
   height="12mm"
   viewBox="0 0 71 12"
   version="1.1"
   id="svg5"
   sodipodi:docname="fusemblr.svg"
   inkscape:version="1.1.2 (0a00cf5339, 2022-02-04)"
   xmlns:inkscape="http://www.inkscape.org/namespaces/inkscape"
   xmlns:sodipodi="http://sodipodi.sourceforge.net/DTD/sodipodi-0.dtd"
   xmlns="http://www.w3.org/2000/svg"
   xmlns:svg="http://www.w3.org/2000/svg">
  <sodipodi:namedview
     id="namedview7"
     pagecolor="#ffffff"
     bordercolor="#666666"
     borderopacity="1.0"
     inkscape:pageshadow="2"
     inkscape:pageopacity="0.0"
     inkscape:pagecheckerboard="0"
     inkscape:document-units="mm"
     showgrid="false"
     inkscape:zoom="5.5731762"
     inkscape:cx="161.93638"
     inkscape:cy="-4.2166261"
     inkscape:window-width="1850"
     inkscape:window-height="1016"
     inkscape:window-x="0"
     inkscape:window-y="0"
     inkscape:window-maximized="1"
     inkscape:current-layer="layer1" />
  <defs
     id="defs2" />
  <g
     inkscape:label="Layer 1"
     inkscape:groupmode="layer"
     id="layer1">
    <text
       xml:space="preserve"
       style="font-size:16.9333px;line-height:1.25;font-family:sans-serif;fill:#7c7c7c;fill-opacity:1;stroke-width:0.264583"
       x="8.3197279"
       y="10.881041"
       id="text3224-3"><tspan
         sodipodi:role="line"
         id="tspan3222-6"
         style="font-style:italic;font-variant:normal;font-weight:normal;font-stretch:normal;font-size:16.9333px;font-family:NATS;-inkscape-font-specification:'NATS Italic';fill:#7c7c7c;fill-opacity:1;stroke-width:0.264583"
         x="8.3197279"
         y="10.881041">fusemblr</tspan></text>
    <rect
       style="fill:#7c7c7c;fill-opacity:1;stroke-width:0;stroke-miterlimit:4;stroke-dasharray:none;stroke-dashoffset:0;stop-color:#000000"
       id="rect42171"
       width="8.5089264"
       height="0.96139979"
       x="1.6610154"
       y="3.9585755"
       ry="0"
       transform="matrix(1,0,-0.19904106,0.97999115,0,0)" />
    <rect
       style="fill:#7c7c7c;fill-opacity:1;stroke-width:0;stroke-miterlimit:4;stroke-dasharray:none;stroke-dashoffset:0;stop-color:#000000"
       id="rect42171-8"
       width="8.5089264"
       height="1.0770864"
       x="62.526405"
       y="3.7460983"
       ry="0"
       transform="matrix(1,0,-0.17766266,0.98409145,0,0)" />
    <path
       style="color:#000000;fill:#ff6e00;stroke-linecap:round;-inkscape-stroke:none"
       d="M 3.5253906,3.96875 C 3.466903,3.9785048 3.3784013,3.9679376 3.265625,3.9960938 3.0792352,4.0426814 2.9153837,4.1036255 2.75,4.1367187 2.68351,4.1496377 2.584743,4.1441987 2.4726563,4.1601557 2.371508,4.1746967 2.2847673,4.1997807 2.21875,4.2050777 c -0.1969303,0.016246 -0.4166486,-0.014858 -0.6523438,0 -0.073548,0.00391 -0.1297432,0.067127 -0.125,0.140625 0.00391,0.073547 0.067127,0.1297432 0.140625,0.125 0.1989564,-0.012542 0.4211699,0.017601 0.6582032,-0.00195 0.1084825,-0.0087 0.1995577,-0.036816 0.2695312,-0.046875 0.071933,-0.010242 0.1753136,-0.00291 0.2910157,-0.025391 0.1924375,-0.038507 0.361853,-0.1026791 0.5292968,-0.1445313 0.050235,-0.012542 0.1313966,-0.00401 0.2382813,-0.021484 -0.00839,0.0013 0.030752,0.0098 0.099609,0.00195 h 0.00195 c 0.158883,-0.019861 0.3586443,8.854e-4 0.5371093,0.023437 0.031165,0.00383 0.092212,0.036795 0.1933594,0.046875 0.1069819,0.010793 0.1936201,0.011312 0.2792969,0.023437 0.064144,0.00916 0.132934,0.055935 0.2636719,0.072266 0.3584053,0.044815 0.7271882,0.1161402 1.0839843,0.1875 0.2032352,0.040706 0.4204336,0.00195 0.5722657,0.00195 0.1058005,0 0.2503897,0.025021 0.4003906,0 0.1874741,-0.031204 0.3661126,-0.065504 0.546875,-0.095703 0.050308,-0.0084 0.1026855,-0.015792 0.1601562,-0.025391 0.077465,-0.012906 0.1855323,0.00374 0.3183594,-0.023437 0.034824,-0.00699 0.083251,-0.00577 0.1503907,-0.015625 0.017024,-0.00194 0.034722,-0.0038 0.052734,-0.00586 h 0.00195 0.00195 c 0.093857,-0.013364 0.2276302,0.00195 0.3613281,0.00195 H 9.423818 c 0.081385,0 0.2049303,-0.00958 0.3261719,-0.013672 0.1212416,-0.00409 0.2472526,0.00225 0.2773441,0.00977 0.135131,0.033734 0.342499,0.046474 0.515625,0.021484 6.54e-4,-9.44e-5 0.0013,9.61e-5 0.002,0 5.72e-4,2.188e-4 0.0344,0.00387 0.03512,0.0039 7.22e-4,2.34e-5 0.03936,0.00307 0.05081,6.5e-6 h 0.0039 l 0.0039,-0.00195 c 0.06879,-0.022937 0.174373,-0.014378 0.306641,-0.046875 0.03544,-0.00889 0.110407,0.0014 0.21289,-0.023437 l 0.002,-0.00195 h 0.002 c 0.01954,-0.00542 -0.01208,0.0082 0,0 0.01884,0.00293 0.07683,-0.00928 0.125,-0.025391 0.143972,-0.048131 0.471884,-0.027547 0.623047,0.023437 0.07027,0.023665 0.123199,0.010593 0.15625,0.00586 0.03305,-0.00473 0.04691,-0.0013 0.0332,-0.00586 l -0.0059,-0.00195 c -0.0507,-0.01935 -0.057,-0.047826 -0.05273,-0.041016 0.0026,0.00417 0.03601,0.02491 0.05859,0.042969 0.01433,0.011456 0.01047,0.021419 0.03711,0.027344 0.115281,0.024754 0.218784,0.00391 0.277344,0.00391 0.01902,0 0.02025,9.62e-5 0.03125,0 0.0022,7.079e-4 0.0058,0.00134 0.0078,0.00195 0.02792,0.00833 0.05527,0.011749 0.109375,0.019531 0.174873,0.02493 0.319629,-5.179e-4 0.423828,0.021484 0.0096,0.0073 0.0041,0.011203 0.01953,0.017578 0.06203,0.024783 0.121758,0.025754 0.160157,0.025391 0.0384,-3.634e-4 0.05581,2.522e-4 0.07031,0.00391 -8e-4,-2e-4 0.04088,0.037756 0.132813,0.068359 0.0087,0.00291 0.02224,3.963e-4 0.0332,0.00195 0.0023,0.00217 0.0077,0.0058 0.0078,0.00586 0.136319,0.090899 0.256906,0.1201647 0.310547,0.1738282 0.0056,0.011463 0.02234,0.043273 0.04883,0.070312 0.04737,0.047427 0.09633,0.091752 0.101563,0.099609 0.04122,0.061827 0.07804,0.150933 0.146484,0.2421875 0.05553,0.074019 0.113252,0.1561017 0.119141,0.1855469 0.02406,0.1202773 0.05911,0.249261 0.09961,0.3710938 -0.01,-0.029962 -0.0034,-0.019876 -0.0078,0.00781 -0.0044,0.027688 -0.02327,0.077697 0.01367,0.1503906 -0.0073,-0.014334 0.01924,0.083189 0.02344,0.1660156 0.0042,0.082827 -0.0071,0.1814537 -0.0059,0.1777344 -0.05353,0.1599425 -0.0642,0.3036755 -0.09766,0.4375 -0.0052,0.020644 -0.0414,0.075342 -0.06836,0.15625 -0.0389,0.1167084 -0.03507,0.2204448 -0.04883,0.2617187 -0.006,0.018119 -0.05095,0.082654 -0.07422,0.1757813 -0.02794,0.1117436 -0.03974,0.2111422 -0.06836,0.296875 -0.03693,0.1106395 -0.02239,0.2162516 -0.01953,0.3339844 0.0029,0.1177328 -5.43e-4,0.2423968 -0.0059,0.2636719 -0.129431,0.5172239 0.05618,1.0249192 0.19336,1.4375 0.02328,0.070132 0.06254,0.1071185 0.0918,0.1386718 0.02085,0.022482 0.02823,0.033914 0.03711,0.044922 v 0.00391 l 0.01367,0.029297 c 0.0065,0.013212 0.01614,0.054694 0.05664,0.1074219 v 0.00195 c 3.69e-4,4.612e-4 0.02183,0.014334 0.04102,0.027344 -0.0012,0.00648 -7.31e-4,0.030339 0.04687,0.1035156 0.02018,0.03101 0.02991,0.04527 0.04102,0.06055 0.0028,0.0038 0.0053,0.0065 0.01172,0.01367 0.0032,0.0036 0.01533,0.01538 0.01563,0.01563 1.48e-4,1.21e-4 0.01746,0.01165 0.01758,0.01172 7.5e-5,4.3e-5 0.01106,0.0056 0.02149,0.0098 0.081,0.08034 0.187259,0.14054 0.287109,0.173828 0.104371,0.03484 0.182827,0.03383 0.197266,0.04102 0.125742,0.06245 0.245143,0.105797 0.373047,0.148437 0.07386,0.02458 0.128698,0.01119 0.166015,0.0059 0.03579,-0.0051 0.05221,-0.0032 0.04492,-0.0059 -0.02171,-0.0076 0.0076,0.0046 0.02734,0.01563 0.0099,0.0055 0.01941,0.01166 0.03125,0.01758 0.01184,0.0059 0.0187,0.01274 0.05273,0.01953 0.09044,0.01815 0.140299,0.01116 0.183594,0.02148 0.06929,0.01732 0.125321,0.0086 0.166016,0.0039 0.04069,-0.0046 0.06714,-0.0052 0.07226,-0.0039 0.136164,0.03402 0.327042,0.04216 0.521485,0.0293 0.194443,-0.01286 0.381307,-0.03539 0.519531,-0.138672 l -0.0059,0.0039 c 0,0 -0.01949,0.01073 -0.02539,0.01367 0.0082,-0.0022 0.0201,-0.0049 0.03125,-0.0078 0.01115,-0.0029 0.02276,-0.0056 0.03125,-0.0078 0.0042,-0.0011 0.007,-0.0012 0.0098,-0.002 0.0027,-7.23e-4 0.0039,-0.002 0.0039,-0.002 l 0.05469,-0.03516 h 0.002 c 0.02157,-0.0024 0.06241,-0.01001 0.09766,-0.04492 0.02114,-0.02088 0.01249,-0.01998 0.01758,-0.03125 0.01083,-0.0054 0.0227,-0.01056 0.05469,-0.01953 0.04017,-0.01126 0.102806,-0.02672 0.158203,-0.08203 l 0.002,-0.002 0.002,-0.002 c 2.09e-4,-2.24e-4 0.0057,-0.01027 0.0098,-0.01758 0.02366,-0.0022 0.05826,-9.3e-4 0.109375,-0.03516 0.03888,-0.02637 0.0575,-0.05298 0.06641,-0.06445 0.009,-0.01165 0.0078,-0.0068 -0.0098,0.002 0.03559,-0.01782 0.118649,-0.05679 0.197265,-0.09766 0.03931,-0.02043 0.07786,-0.041008 0.111329,-0.060547 0.03347,-0.01954 0.05566,-0.030341 0.08984,-0.064453 0.02074,-0.020728 0.01765,-0.028384 0.02344,-0.042969 0.0014,0.00118 0.01841,-0.00674 0.05273,-0.017578 0.03873,-0.012225 0.08801,-0.022753 0.144531,-0.074219 0.0027,-7.36e-4 0.003,9.349e-4 0.0059,0 0.0077,-0.00253 0.0072,0.00226 0.01563,-0.00195 l 0.0039,-0.00195 0.002,-0.00195 c 4.38e-4,-2.5e-4 0.03487,-0.028964 0.03516,-0.029297 9.7e-5,-1.123e-4 0.0042,-0.00768 0.0078,-0.013672 0.01834,-0.00582 0.03902,-0.00876 0.06836,-0.023437 l 0.002,-0.00195 c 0.04872,-0.024478 0.05644,-0.044254 0.06641,-0.060547 0.0129,-5.22e-4 0.01497,0.00412 0.0332,-0.00195 0.06717,-0.022381 0.108944,-0.060657 0.144531,-0.091797 0.03559,-0.03114 0.06645,-0.058583 0.07813,-0.066406 0.07731,-0.051825 0.166094,-0.103559 0.259766,-0.1660156 0.10345,-0.068992 0.296835,-0.1156132 0.451172,-0.1464844 0.124464,-0.024944 0.210749,-0.082028 0.265625,-0.095703 h 0.002 c -0.01937,0.00491 -0.01231,0.00115 0.0098,0.00391 0.02208,0.00276 0.06017,0.011338 0.117188,-0.00781 0.07955,-0.026614 0.235009,-0.033314 0.384765,-0.015625 0.146626,0.017319 0.290002,0.05787 0.365235,0.09375 0.0084,0.010426 0.02395,0.034662 0.05859,0.060547 0.183794,0.1378453 0.375234,0.2923356 0.490234,0.4648438 0.03423,0.051292 0.08194,0.073282 0.09961,0.082031 0.002,0.00395 0.0039,0.00777 0.0059,0.011719 0.0019,0.013161 -0.0023,0.018869 0.0059,0.035156 0.0366,0.073125 0.09237,0.1031381 0.125,0.1230469 0.03263,0.019909 0.0465,0.031665 0.04492,0.029297 0.08379,0.1256793 0.223761,0.2234883 0.375,0.3124993 0.151239,0.08901 0.308163,0.161024 0.4375,0.19336 -0.0064,-0.0016 0.01318,0.0049 0.03711,0.01953 0.02393,0.01465 0.04996,0.03693 0.105469,0.05078 0.09678,0.02418 0.16809,0.01608 0.201172,0.02149 0.01193,0.0097 0.0055,0.01619 0.02734,0.02344 0.09045,0.03021 0.174274,0.02393 0.261718,0.01953 0.08744,-0.0044 0.173488,-0.01367 0.222657,-0.01367 -0.02364,0 -0.01737,3.95e-4 0.0039,0.0039 0.02127,0.0035 0.08715,0.0071 0.136719,-0.04297 h 0.002 v -0.002 c 1.81e-4,-1.95e-4 0.0046,-0.0098 0.0078,-0.01563 0.01877,-0.0017 0.05478,-0.0076 0.0957,-0.02149 0.05699,-0.0161 0.08355,-0.05297 0.09766,-0.07422 0.01152,-0.0029 0.06155,-0.0093 0.132812,-0.04492 0.04548,-0.02258 0.06902,-0.0521 0.08203,-0.06836 0.01301,-0.01626 0.01761,-0.01955 0.0098,-0.01367 -0.0073,0.0055 0.02688,-2.39e-4 0.09766,-0.03516 0.05995,-0.02966 0.08997,-0.07665 0.107422,-0.105468 0.01745,-0.02882 0.02939,-0.04306 0.02344,-0.03711 0.03213,-0.0321 0.129102,-0.07355 0.205078,-0.1874995 0.08114,-0.1217119 0.207646,-0.2468174 0.292969,-0.4179687 0.03881,-0.077787 0.05012,-0.1288931 0.06445,-0.1503906 0.01618,-0.011707 0.04596,-0.030358 0.0625,-0.080078 0.0015,-0.00459 -0.0011,-0.00356 0,-0.00781 0.04669,-0.050093 0.08037,-0.1041377 0.113281,-0.1621093 0.03525,-0.062099 0.06755,-0.1262602 0.08789,-0.1601563 0.07123,-0.118717 0.122596,-0.2415852 0.18164,-0.3203125 0.02387,-0.031806 0.09683,-0.073773 0.166016,-0.1660156 0.02853,-0.038052 0.03588,-0.06957 0.04102,-0.083984 -2.53e-4,0.00115 0.0012,1.492e-4 0.01758,-0.00977 0.02214,-0.013382 0.0559,-0.030127 0.08789,-0.078125 0.04598,-0.069 0.110137,-0.1482892 0.154297,-0.1777344 -0.0061,0.00404 7.78e-4,-1.072e-4 0.02148,-0.00781 0.02071,-0.00771 0.05781,-0.020728 0.09375,-0.056641 0.05674,-0.056772 0.06323,-0.086692 0.04687,-0.070312 0.04723,-0.047221 0.137389,-0.1129889 0.210938,-0.1679688 0.01542,-0.00212 0.04329,-0.00475 0.08203,-0.033203 h 0.002 c 0.07809,-0.058585 0.16232,-0.091525 0.273438,-0.1582031 0.02235,-0.013398 0.02375,-0.022103 0.0332,-0.033203 0.0106,-2.061e-4 0.01037,0.00365 0.02539,0 0.178889,-0.044768 0.354021,-0.1006266 0.521484,-0.1425781 0.05458,-0.013707 0.180584,0.029426 0.345703,0.00195 0.697063,-0.1161795 1.447363,-0.068359 2.1875,-0.068359 0.133331,0 0.236063,-0.035086 0.330078,-0.050781 0.06566,-0.010924 0.154576,-0.00578 0.259766,-0.023437 0.139199,-0.023162 0.321029,0.010566 0.523437,-0.023437 0.162191,-0.027002 0.374872,0.023164 0.607422,0.00195 0.635364,-0.057934 1.281424,-0.046875 1.933594,-0.046875 0.07323,1.4e-5 0.132542,-0.059468 0.132316,-0.1326999 2.9e-4,-0.07347 -0.05934,-0.1331021 -0.132812,-0.1328125 -0.649161,0 -1.302669,-0.010838 -1.957031,0.048828 -0.170908,0.015589 -0.390306,-0.037445 -0.626953,0.00195 h -0.002 c -0.139273,0.023397 -0.319327,-0.0102 -0.521484,0.023437 -0.06602,0.011268 -0.154,0.00584 -0.259766,0.023437 h -0.002 c -0.11683,0.019504 -0.200131,0.044922 -0.285156,0.044922 -0.728509,0 -1.492243,-0.048821 -2.230469,0.074219 -0.06327,0.010527 -0.197986,-0.04054 -0.367187,0.00195 -0.177767,0.044533 -0.352112,0.1005987 -0.519531,0.1425782 -5.86e-4,1.468e-4 -0.0014,-1.465e-4 -0.002,0 -0.0019,4.184e-4 8.7e-5,-5.315e-4 -0.002,0 -0.01918,-0.00216 -0.03618,-0.00808 -0.07227,0.00977 -0.04449,0.022233 -0.06244,0.050165 -0.07031,0.060547 -0.08002,0.046484 -0.167127,0.085643 -0.261719,0.1523437 -0.01305,0.00226 -0.04862,0.00472 -0.0918,0.037109 -0.07039,0.052794 -0.173634,0.1228642 -0.251954,0.2011719 -0.0567,0.056779 -0.06324,0.088638 -0.04687,0.072266 0.01092,-0.010913 0.01511,-0.010754 0.002,-0.00586 -0.01315,0.00489 -0.04067,0.013473 -0.07617,0.037109 -0.106774,0.071194 -0.175384,0.1731997 -0.226563,0.25 0.01093,-0.016398 0.0086,-0.010722 -0.0059,-0.00195 -0.01451,0.00877 -0.0391,0.017697 -0.07422,0.052734 -0.03753,0.037661 -0.04765,0.075968 -0.05469,0.095703 -0.007,0.019735 -0.01122,0.023424 -0.0039,0.013672 -0.02386,0.031818 -0.09683,0.073822 -0.166015,0.1660156 -0.08885,0.1184725 -0.141312,0.2504872 -0.197266,0.34375 -0.02855,0.047574 -0.05991,0.1078894 -0.0918,0.1640625 -0.02401,0.042291 -0.04256,0.068151 -0.05859,0.089844 -1.64e-4,4.79e-5 -0.0019,-7.5e-6 -0.002,0 -3.71e-4,1.631e-4 -0.03876,0.0251 -0.03906,0.025391 -3e-4,2.907e-4 -0.02712,0.036672 -0.02734,0.037109 v 0.00195 c -0.01185,0.024028 -0.0051,0.029526 -0.0059,0.046875 -0.01097,0.0083 -0.01779,0.0081 -0.0332,0.03125 -0.05439,0.081602 -0.06501,0.1514281 -0.08008,0.1816406 -0.05889,0.1181283 -0.174349,0.237104 -0.27539,0.3886719 -0.01918,0.028765 -0.09045,0.063182 -0.173828,0.1464843 -0.03899,0.038974 -0.0528,0.071877 -0.0625,0.087891 -0.0097,0.01601 -0.0097,0.0097 0.002,0.0039 0.0027,-0.0013 -0.06191,0.003 -0.138672,0.06055 -0.03466,0.02598 -0.0502,0.05006 -0.05859,0.06055 -0.0064,9.78e-4 -0.06256,0.0094 -0.134765,0.04492 -0.04653,0.02343 -0.05318,0.04754 -0.0625,0.06445 0.01429,-0.0069 -0.0055,-7.45e-4 -0.04297,0.0039 -0.02955,0.0037 -0.07932,0.02505 -0.125,0.05469 -0.07026,9.09e-4 -0.148317,0.008 -0.222656,0.01172 -0.07704,0.0039 -0.149472,-0.0025 -0.16211,-0.0059 -0.01318,-0.01083 -0.0084,-0.01853 -0.0332,-0.02539 h -0.002 c -0.102675,-0.02597 -0.185239,-0.01604 -0.214844,-0.02344 0.01463,0.0037 -0.006,-0.0041 -0.03125,-0.01953 -0.02521,-0.01543 -0.05748,-0.03922 -0.111328,-0.05274 -0.08482,-0.02121 -0.235836,-0.08561 -0.369141,-0.164062 -0.133304,-0.078456 -0.254028,-0.1779191 -0.289062,-0.2304687 -0.04242,-0.063588 -0.09481,-0.090954 -0.125,-0.109375 -0.0151,-0.00921 -0.0098,-0.00485 -0.01367,-0.00781 v -0.00195 l -0.01367,-0.029297 c -0.0079,-0.01584 -0.01558,-0.031155 -0.02344,-0.046875 l -0.0039,-0.00781 -0.0039,-0.00586 c -0.03423,-0.051305 -0.08193,-0.07328 -0.09961,-0.082031 -0.01768,-0.00875 -0.0062,-0.00533 0.0039,0.00977 -0.148281,-0.2224315 -0.365007,-0.3904556 -0.552734,-0.53125 0.0079,0.00588 0.0033,0.00255 -0.0098,-0.013672 -0.01304,-0.016224 -0.03653,-0.045905 -0.08203,-0.068359 -0.121938,-0.060343 -0.285547,-0.1006077 -0.458985,-0.1210937 -0.173437,-0.020486 -0.350883,-0.022542 -0.5,0.027344 0.02218,-0.00745 0.01936,-0.00344 0,-0.00586 -0.01936,-0.00242 -0.05451,-0.010006 -0.109375,0.00391 -0.116763,0.029686 -0.20221,0.081437 -0.253906,0.091797 -0.156523,0.031309 -0.37247,0.070539 -0.544922,0.1855469 -0.08438,0.056263 -0.174044,0.1072402 -0.261718,0.1660156 -0.04501,0.030167 -0.07502,0.062953 -0.103516,0.087891 -0.02663,0.023303 -0.04671,0.035652 -0.04883,0.037109 -0.01504,-0.00153 -0.02383,-0.00766 -0.05273,0.00195 -0.07147,0.023899 -0.08937,0.06539 -0.101562,0.082031 -0.0068,0.00243 -0.01272,0.00618 -0.0293,0.011719 -0.02403,0.00803 -0.05275,0.016267 -0.08984,0.041016 -1.74e-4,1.166e-4 -0.0068,0.00713 -0.01367,0.013672 -0.0093,0.00269 -0.009,-0.00329 -0.01953,0.00195 -4.37e-4,2.188e-4 -0.03682,0.027041 -0.03711,0.027344 -1.88e-4,1.936e-4 -0.0079,0.013926 -0.01563,0.025391 -0.0078,0.00328 -0.0044,5.805e-4 -0.02734,0.00781 -0.03933,0.012418 -0.09074,0.021217 -0.150391,0.070312 -0.02882,0.024288 -0.031,0.039305 -0.03711,0.056641 0.0056,-0.00617 -0.0088,0.00724 -0.0332,0.021484 -0.02708,0.015808 -0.06248,0.035385 -0.09961,0.054687 -0.07426,0.038604 -0.153863,0.075926 -0.19336,0.095703 -0.04757,0.023771 -0.068,0.05671 -0.08008,0.072266 -0.01208,0.015555 -0.01613,0.015955 -0.0039,0.00781 0.01955,-0.013094 0.01327,-0.00655 -0.01758,-0.00195 -0.03085,0.0046 -0.09201,0.014045 -0.144532,0.066406 -3.41e-4,3.41e-4 -0.0091,0.01465 -0.01758,0.0293 -0.0058,0.0027 -0.0061,0.0038 -0.02734,0.0098 -0.03474,0.0097 -0.09276,0.02145 -0.152344,0.06445 -0.02757,0.01986 -0.01805,0.02356 -0.02539,0.03711 -0.03119,0.0037 -0.06408,0.0027 -0.101562,0.03906 -1.71e-4,2.48e-4 -0.0034,0.0031 -0.0039,0.0039 -0.0046,0.0012 -0.0098,0.0029 -0.01367,0.0039 -0.0044,0.0012 -0.0087,0.0031 -0.01172,0.0039 -0.0015,4.13e-4 -0.0022,-4.83e-4 -0.0039,0 -8.51e-4,2.41e-4 -0.002,0.0014 -0.0039,0.002 -9.63e-4,2.97e-4 -0.0058,0.0019 -0.0059,0.002 -5.5e-5,1.9e-5 -0.01172,0.0059 -0.01172,0.0059 l -0.01953,0.0098 -0.0039,0.0039 c -0.03818,0.02852 -0.207141,0.07457 -0.378907,0.08594 -0.171765,0.01136 -0.355889,-6.06e-4 -0.439453,-0.02148 -0.06929,-0.01732 -0.12532,-0.0086 -0.166015,-0.0039 -0.0407,0.0046 -0.06715,0.0052 -0.07227,0.0039 -0.08497,-0.02102 -0.134351,-0.01618 -0.18164,-0.02344 -0.0045,-0.0022 -0.01249,-0.0047 -0.02149,-0.0098 -0.01799,-0.01005 -0.02668,-0.02055 -0.06836,-0.03516 h -0.002 c -0.07389,-0.02472 -0.130598,-0.0112 -0.167969,-0.0059 -0.03737,0.0053 -0.05673,0.0026 -0.04687,0.0059 -0.122804,-0.04094 -0.227243,-0.08177 -0.337891,-0.136718 -0.111327,-0.05541 -0.20542,-0.04437 -0.230468,-0.05274 -0.0348,-0.0116 -0.0932,-0.05233 -0.138672,-0.083984 -0.0033,-0.00979 -0.0078,-0.01947 -0.0078,-0.019531 -1.41e-4,-2.647e-4 -0.02501,-0.034795 -0.02539,-0.035156 -7.53e-4,-7.227e-4 -0.01803,-0.014096 -0.02344,-0.017578 -0.0054,-0.00348 -0.0091,-0.00718 -0.01367,-0.00977 -0.0092,-0.00517 -0.01981,-0.01079 -0.0332,-0.017578 v 0.00195 c -0.0038,-0.00195 -0.01324,-0.00188 -0.01758,-0.00391 0.0022,-0.00152 -0.0071,-0.075318 -0.08398,-0.1542969 -0.002,-0.00135 -0.01295,-0.008 -0.02539,-0.015625 -0.0033,-0.008 -0.005,-0.011265 -0.01367,-0.029297 -0.0024,-0.012305 0.0017,-0.017122 -0.0059,-0.03125 v -0.00195 c -0.03033,-0.055993 -0.06618,-0.087608 -0.0918,-0.1152344 -0.02562,-0.027627 -0.03812,-0.049948 -0.03516,-0.041016 v -0.00195 C 14.182074,9.074456 14.028358,8.618585 14.132813,8.2011719 c 0.02643,-0.1057649 0.0165,-0.2173847 0.01367,-0.3339844 -0.0028,-0.1165997 0.0066,-0.2426033 0.0078,-0.2460938 0.03985,-0.1193869 0.052,-0.2256169 0.07422,-0.3144531 0.0052,-0.020833 0.04143,-0.075369 0.06836,-0.15625 0.0389,-0.1167058 0.03311,-0.2204272 0.04687,-0.2617187 0.006,-0.017891 0.05092,-0.082625 0.07422,-0.1757813 0.03997,-0.1598752 0.05096,-0.2959515 0.0918,-0.4179687 0.03018,-0.090189 0.02652,-0.1760398 0.02148,-0.2753907 -0.005,-0.099351 -0.0063,-0.1801503 -0.05273,-0.2714843 0.01797,0.035364 0.008,0.033165 0.01172,0.00977 0.0037,-0.0234 0.01941,-0.062651 -0.0039,-0.1328125 C 14.449368,5.5138136 14.418143,5.3934187 14.396484,5.2851562 14.367941,5.1424216 14.273963,5.052121 14.230469,4.9941406 14.189033,4.9388953 14.152453,4.8546444 14.091797,4.7636719 14.04122,4.6877692 13.979179,4.6471728 13.957031,4.625 V 4.62305 c -0.0058,-0.01172 -0.02138,-0.042923 -0.04883,-0.070312 -0.111675,-0.1117217 -0.226669,-0.1379159 -0.308594,-0.1796875 -0.0071,-0.011732 -0.01543,-0.025173 -0.01563,-0.025391 -2.91e-4,-3.328e-4 -0.03666,-0.029047 -0.03711,-0.029297 l -0.002,-0.00195 -0.0039,-0.00195 c -0.02174,-0.010851 -0.0455,-0.02046 -0.08008,-0.021484 -0.01017,-3.011e-4 -0.01527,0.00384 -0.02539,0.00586 -0.0137,-0.010302 -0.04593,-0.042239 -0.134766,-0.064453 -0.05969,-0.015046 -0.108387,-0.012005 -0.138672,-0.011719 -0.03028,2.867e-4 -0.04033,-0.0013 -0.05664,-0.00781 0.04508,0.018903 0.05301,0.045482 0.04883,0.039063 -0.0025,-0.00383 -0.03221,-0.02287 -0.05078,-0.039063 -0.01336,-0.01165 -0.01062,-0.020019 -0.03711,-0.027344 l -0.002,-0.00195 c -0.185754,-0.046448 -0.349328,-0.00892 -0.464844,-0.025391 -0.03408,-0.0049 -0.0395,-0.00592 -0.04883,-0.00781 -1.14e-4,-1.236e-4 -0.002,-0.00195 -0.002,-0.00195 l -0.01172,-0.00586 c -4.3e-5,-1.25e-5 -0.03896,-0.00976 -0.03906,-0.00977 -9.7e-5,-8.6e-6 -0.0061,5.39e-5 -0.0078,0 -0.0067,-2.153e-4 -0.0076,-2.97e-5 -0.0098,0 -0.0089,1.189e-4 -0.02514,0 -0.06641,0 -0.08733,0 -0.16483,0.00792 -0.203125,0.00391 -0.01068,-0.00837 -0.0052,-0.012584 -0.02344,-0.019531 h -0.002 l -0.002,-0.00195 c -0.0702,-0.023363 -0.123322,-0.00862 -0.15625,-0.00391 -0.03105,0.00445 -0.04133,0.00233 -0.03125,0.00586 -0.218853,-0.073815 -0.532775,-0.1123689 -0.781249,-0.029301 0.02204,-0.00737 0.01482,0.00208 0,0 -0.01482,-0.00207 -0.03278,0.00641 -0.08321,0.019591 -0.02425,0.00628 -0.03236,-0.00257 -0.0457,0.00775 -0.03722,0.00661 -0.10656,-0.00323 -0.205079,0.021484 -0.06543,0.016077 -0.167608,0.020876 -0.277343,0.046875 -0.007,-0.00136 -0.01537,-0.0039 -0.01563,-0.00391 -7.44e-4,-2.34e-5 -0.02782,9.851e-4 -0.03906,0.00391 -0.06193,0.015513 -0.362225,2.302e-4 -0.457031,-0.023437 C 9.9877765,4.1361259 9.8673667,4.1421976 9.7402344,4.1464844 9.6131021,4.1507712 9.4844002,4.1582031 9.4238281,4.1582031 H 8.59375 c -0.1088239,0 -0.252113,-0.018882 -0.3984375,0.00195 -0.015981,0.00181 -0.034038,0.00395 -0.050781,0.00586 h -0.00195 -0.00195 c -0.039726,0.00609 -0.093115,0.00295 -0.1660156,0.017578 h -0.00195 c -0.072473,0.014826 -0.1771865,0.00154 -0.3085937,0.023437 -0.050305,0.0084 -0.1026841,0.013839 -0.1601563,0.023437 -0.1843692,0.030801 -0.3630495,0.065107 -0.546875,0.095703 -0.088605,0.014779 -0.2224626,-0.00195 -0.3574218,-0.00195 -0.1863596,0 -0.3922428,0.027448 -0.5195313,0.00195 C 5.722681,4.2546919 5.3475285,4.1811509 4.9765625,4.1347656 4.9103545,4.1264958 4.8445724,4.0826954 4.7167969,4.0644531 4.6088624,4.0491782 4.5189923,4.0482693 4.4277344,4.0390625 c -0.029012,-0.00289 -0.090302,-0.034448 -0.1875,-0.046875 h -0.00195 C 4.0578328,3.9693897 3.841952,3.9430946 3.6367188,3.96875 c 0.00245,-7.942e-4 -0.037897,-0.011106 -0.109375,0 z m 8.9257814,0.1699219 v 0.00195 c -0.0015,4.254e-4 -0.0071,0.00229 -0.01172,0.00391 0.0058,-0.00234 0.01112,-0.00569 0.01172,-0.00586 z m 0.15625,0.091797 c 0.0019,0.01092 0.0059,0.039161 0.0059,0.039063 10e-7,-1.183e-4 -0.0079,0.048938 -0.0078,0.048828 4.1e-5,-1.046e-4 -0.01806,0.028669 -0.01953,0.03125 0.0015,-0.00921 0.01768,-0.095886 0.02148,-0.1191407 z m 0.789062,0.076172 c 0.0033,-9.083e-4 0.0045,5.295e-4 0.0078,0 -0.0092,0.00357 -0.02499,0.00523 -0.0293,0.00781 -0.01258,0.00755 -0.0021,-0.00122 0.02148,-0.00781 z m -0.855468,0.080078 c -0.0029,0.00152 -0.006,0.00395 -0.0059,0.00391 6.62e-4,-2.766e-4 -0.01237,0.00355 -0.01367,0.00391 0.0017,-4.793e-4 0.01944,-0.00777 0.01953,-0.00781 z m -1.982422,0.054687 c 0.01811,-0.003 0.03759,0.00624 0.05469,0.00195 -0.01046,0.00218 -0.03391,0.00193 -0.0332,0.00195 3.89e-4,1.23e-5 -0.01084,-0.00181 -0.02148,-0.00391 z"
       id="path57096"
       sodipodi:nodetypes="ccccccccccccccccccccsccccccccssscsccccccccccccccccccscccccsccccccccccscscccccccccscccccccccssccccccccccccscccscccccccsscccccccscccccsccscccccscccccscsccccccscscccccscscccccccsscsccccccscccccccsccccccccccscccccccscccccsccscccccscccccccccccsccscccccscscsccccccccccccscscccsccsccccscsccccscccsscssccccsscscssccccccccscccccccccccccsccccccccccccccccscccccccccccccccccccccccccsccsccsccccccscsscccccccccccccccssscccccccccsccccccccccccccsccccccccccccccccscc" />
    <path
       style="color:#000000;fill:#ff6e00;stroke-linecap:round;-inkscape-stroke:none"
       d="m 64.271484,3.9453125 -1.621093,0.083984 c -0.332564,-2.83e-4 -0.679864,-0.020194 -1.029297,0.023437 -0.08229,0.010296 -0.207157,-0.019759 -0.359375,0.00195 -0.01144,0.00165 -0.06239,-0.00101 -0.119141,-0.00195 -0.05281,-8.742e-4 -0.115537,0.00124 -0.183594,0.025391 -0.0253,0.00697 -0.052,0.015459 -0.0625,0.021484 -0.01344,0.00772 -0.01008,0.00662 -0.01367,0.00781 -0.243612,0.081204 -0.503734,0.1828464 -0.734375,0.2597656 -0.08338,0.027794 -0.146608,0.073387 -0.201171,0.1113281 -0.05456,0.037942 -0.100731,0.068093 -0.13086,0.078125 -0.02562,0.00855 -0.07243,0.027503 -0.126953,0.048828 -0.02726,0.010663 -0.05327,0.019703 -0.07617,0.029297 -0.0229,0.00959 -0.02841,0.00766 -0.06445,0.03125 l -0.002,0.00195 -0.002,0.00195 c -4.28e-4,2.992e-4 -0.01351,0.019003 -0.02734,0.037109 0.0044,-0.0088 0.05563,-0.077968 -0.0957,-0.00195 -0.10614,0.053078 -0.210869,0.060465 -0.363281,0.1113281 -0.07886,0.026254 -0.13902,0.061366 -0.173828,0.068359 -0.05355,0.010709 -0.210248,0.015101 -0.357422,0.00586 -0.147174,-0.00924 -0.301133,-0.033307 -0.347657,-0.048828 -0.07415,-0.024704 -0.13889,-0.021174 -0.199218,-0.017578 -0.06033,0.0036 -0.116471,0.00977 -0.144532,0.00977 -0.0034,0 -0.04746,-0.00381 -0.08984,-0.00586 -0.04238,-0.00204 -0.08024,-0.00851 -0.146485,0.013672 0.012,-0.004 -0.01703,0.00177 -0.04883,0.00391 -0.0318,0.00213 -0.0655,-0.00534 -0.126953,0.025391 -0.04579,0.022883 -0.09579,0.045518 -0.138672,0.060547 -0.01391,-0.00187 -0.04302,-0.00869 -0.08789,0 -0.133712,0.026727 -0.22423,0.088978 -0.300782,0.1210938 -0.01941,-0.00193 -0.03034,-0.009 -0.06445,0.00781 V 5.0625 c -0.04051,0.020256 -0.05554,0.042419 -0.06445,0.054687 -8.72e-4,0.0012 -0.0052,0.00494 -0.0059,0.00586 -0.19246,0.1154834 -0.390827,0.234109 -0.580078,0.3476562 -0.04611,0.027688 -0.06777,0.054133 -0.0918,0.080078 -0.02403,0.025945 -0.04594,0.051795 -0.05273,0.058594 0.0044,-0.00442 -5.3e-4,-2.852e-4 -0.02148,0.011719 -0.02095,0.012004 -0.05978,0.03297 -0.08984,0.078125 -0.09037,0.1354488 -0.170684,0.2616115 -0.228515,0.4335938 v 0.00195 c -0.01742,0.05304 -0.01451,0.090608 -0.01563,0.1171875 -0.0011,0.026579 -0.0075,0.038673 -0.002,0.027344 -0.0082,0.016895 -0.01697,0.020681 -0.05273,0.070312 -0.03339,0.046388 -0.03742,0.078703 -0.04492,0.1054687 -0.0051,0.018329 -0.0078,0.022707 -0.0098,0.029297 -0.01169,0.00716 -0.02065,0.00826 -0.03125,0.019531 -0.02323,0.024691 -0.0362,0.053699 -0.04492,0.080078 -0.0075,0.023218 -0.002,0.032311 -0.002,0.048828 -0.0082,0.00941 -0.02619,0.026011 -0.02734,0.027344 -0.03824,0.038552 -0.06231,0.090716 -0.06836,0.109375 0,0 0,0.00195 0,0.00195 0.007,-0.0071 0.0017,-5.805e-4 -0.02539,0.015625 -0.02712,0.016205 -0.07003,0.046665 -0.101563,0.09375 -0.02349,0.035147 -0.02726,0.052412 -0.0332,0.066406 -0.0059,0.013994 -0.01413,0.020067 0.002,0.00391 0.0059,-0.0059 -0.01297,0.00988 -0.03906,0.027344 -0.02609,0.017464 -0.06274,0.038576 -0.0957,0.087891 -0.01924,0.028799 -0.02323,0.041131 -0.02539,0.046875 -0.130562,0.073148 -0.223595,0.1627564 -0.316406,0.2246094 -0.02805,0.018676 -0.03734,0.036412 -0.04883,0.052734 -0.0024,-0.00718 -0.0078,-0.023443 -0.0078,-0.023437 -3.86e-4,1.286e-4 -0.02171,0.00968 -0.02539,0.011719 -0.0037,0.00204 -0.0053,0.00234 -0.0078,0.00391 -0.0051,0.00313 -0.01091,0.00739 -0.01758,0.011719 -0.01333,0.00866 -0.03112,0.020746 -0.05859,0.039063 -0.134505,0.089664 -0.219963,0.147021 -0.355469,0.2011719 -0.07498,0.029992 -0.105337,0.06821 -0.144531,0.1035156 -0.03552,0.031996 -0.06761,0.056444 -0.07227,0.060547 -0.01888,-7.508e-4 -0.0249,-0.00882 -0.05469,0.00586 -0.05546,0.027675 -0.08538,0.066584 -0.105469,0.091797 -0.02009,0.025213 -0.03209,0.038232 -0.0332,0.039063 -0.01854,0.01391 -0.163197,0.1122925 -0.183594,0.125 -0.01907,-0.00105 -0.0258,-0.00934 -0.05664,0.00586 h -0.002 c -0.05433,0.027232 -0.07891,0.064438 -0.09375,0.083984 -0.0105,0.013836 -0.0072,0.012264 -0.0059,0.011719 -2.89e-4,6.32e-5 -0.0016,-6.46e-5 -0.002,0 -0.0129,0.00272 -0.03779,0.00666 -0.07227,0.027344 -0.09121,0.054715 -0.146365,0.1171021 -0.1875,0.140625 -0.09677,0.055337 -0.156756,0.1389569 -0.230469,0.2226563 -0.07371,0.083699 -0.15956,0.1684553 -0.167969,0.1738281 l -0.244141,0.15625 c -0.01096,0.00578 -0.02287,0.012017 -0.0332,0.017578 -0.02331,0.012543 -0.04354,0.023744 -0.0625,0.035156 -0.01896,0.011412 -0.03251,0.016888 -0.05859,0.042969 -0.124068,0.1240676 -0.222918,0.2445987 -0.322266,0.34375 0.01337,-0.013336 -0.01029,0.0049 -0.04297,0.019531 -0.03267,0.014627 -0.07536,0.028607 -0.123047,0.076172 -0.0019,0.00291 -0.0057,0.011731 -0.01172,0.021484 -0.02086,0.00564 -0.03235,-7.013e-4 -0.05859,0.025391 -0.01195,0.011905 -0.02503,0.023036 -0.03906,0.054687 -3.06e-4,2.024e-4 3.06e-4,0.00175 0,0.00195 -0.02766,0.018359 -0.05642,0.035936 -0.08203,0.054687 -0.02047,0.014991 -0.04064,0.027667 -0.05469,0.037109 -0.01404,0.00944 -0.03072,0.014723 -0.0098,0.00781 -0.01953,-0.00151 -0.03153,-0.00889 -0.06445,0.00781 -4.38e-4,2.249e-4 -0.03682,0.027042 -0.03711,0.027344 -2.02e-4,2.105e-4 -0.0099,0.015804 -0.01758,0.027344 -0.0067,-0.00141 -0.01727,-0.00392 -0.01758,-0.00391 -5.87e-4,2.42e-5 -0.01908,0.00184 -0.02734,0.00391 -0.0083,0.00207 -0.01543,0.00527 -0.02148,0.00781 -0.04628,0.019416 -0.05446,0.03438 -0.07422,0.054687 -4.39e-4,4.104e-4 -0.01275,0.0178 -0.02344,0.035156 -0.0093,0.00555 -0.01261,0.00785 -0.0332,0.017578 -0.03256,0.015389 -0.06974,0.030418 -0.08398,0.035156 h -0.002 c -0.02166,0.00729 -0.06562,0.024381 -0.115234,0.044922 -0.02481,0.01027 -0.04892,0.021651 -0.07227,0.033203 -0.02153,0.010653 -0.04061,0.017471 -0.07031,0.044922 -0.0093,0.00267 -0.009,-0.00325 -0.01953,0.00195 -4.37e-4,2.187e-4 -0.03682,0.028992 -0.03711,0.029297 -1.45e-4,1.524e-4 -0.0071,0.00957 -0.01367,0.019532 -0.01901,0.0062 -0.03414,0.0065 -0.09766,0.03906 h -0.002 c -0.06534,0.03358 -0.08147,0.05786 -0.08203,0.0625 -0.01363,-3.65e-4 -0.01613,-0.0048 -0.03711,0.002 -0.09818,0.03347 -0.160439,0.07529 -0.208984,0.0918 0.0063,-0.0012 0.01758,-0.0045 0.0059,-0.0059 -0.0178,-0.002 -0.04097,-0.0133 -0.103515,0.0078 v -0.002 c -0.202998,0.06769 -0.496489,0.09706 -0.705079,0.04492 -0.09268,-0.02317 -0.171631,-0.006 -0.234375,0.002 -0.06274,0.008 -0.107157,0.0073 -0.123046,0.002 h -0.002 c -0.08418,-0.02766 -0.134841,-0.02151 -0.140625,-0.02344 -0.05677,-0.01896 -0.12116,-0.04946 -0.189453,-0.07227 -0.0596,-0.01993 -0.09854,-0.0069 -0.11914,-0.0039 -0.0206,0.003 -0.02233,-0.0042 0.002,0.0039 -0.06022,-0.02011 -0.112442,-0.02234 -0.146485,-0.02539 -0.03404,-0.003 -0.04745,-0.0056 -0.06055,-0.01172 -0.06777,-0.03166 -0.111857,-0.01525 -0.134766,-0.01172 -0.02291,0.0035 -0.03013,-0.0049 0.002,0.0059 -0.0209,-0.007 -0.06321,-0.02927 -0.115234,-0.04687 h -0.002 c -0.03795,-0.01283 -0.05266,-0.0053 -0.07031,-0.002 C 48.260643,9.9990554 48.128393,9.939739 48.019531,9.8671875 47.890504,9.7811665 47.783615,9.643114 47.671875,9.4941406 c -0.05468,-0.073121 -0.09503,-0.093944 -0.08789,-0.082031 -0.0032,-0.00542 -0.01064,-0.048618 -0.05469,-0.1074219 l -0.002,-0.00195 c -3.96e-4,-5.049e-4 -0.02536,-0.017774 -0.04492,-0.03125 -0.0058,-0.00909 -0.0095,-0.014536 -0.01953,-0.035156 -0.01521,-0.031129 -0.03608,-0.077059 -0.07813,-0.1210937 l -0.002,-0.00195 c -0.0026,-0.00173 -0.01749,-0.00985 -0.0332,-0.019531 -0.0014,-0.00328 -1.12e-4,-8.425e-4 -0.002,-0.00586 -0.0076,-0.020679 -0.01561,-0.053966 -0.04492,-0.097656 -0.02659,-0.039532 -0.05303,-0.057469 -0.06445,-0.066406 -0.01142,-0.00894 -0.0067,-0.00777 0.002,0.00977 -0.0068,-0.01382 -0.03781,-0.083047 -0.06836,-0.1464844 -0.01528,-0.031719 -0.03098,-0.063248 -0.04492,-0.089844 -0.007,-0.013298 -0.01274,-0.023705 -0.01953,-0.035156 -0.0068,-0.011451 -0.0092,-0.020264 -0.03125,-0.042969 -0.0075,-0.00767 -0.01818,-0.014982 -0.03125,-0.023437 4.4e-4,-0.013892 0.0044,-0.018665 0,-0.039063 -0.01877,-0.089349 -0.06551,-0.1158991 -0.09766,-0.1425781 -0.02961,-0.024575 -0.05599,-0.045228 -0.05078,-0.039063 -2.26e-4,-3.708e-4 2.33e-4,-0.00157 0,-0.00195 -0.0057,-0.00933 -0.01404,-0.02226 -0.02148,-0.035156 -0.0077,-0.013425 -0.01526,-0.026254 -0.02148,-0.037109 -0.0031,-0.00543 -0.0053,-0.011408 -0.0078,-0.015625 -0.0012,-0.00211 -0.0024,-0.00345 -0.0039,-0.00586 -0.0011,-0.00173 -0.0051,-0.00786 -0.0078,-0.011719 l -0.0039,-0.00391 c -0.01789,-0.022058 -0.03372,-0.033717 -0.0332,-0.033203 l -0.03906,-0.039063 h -0.0039 c -0.0054,-0.00995 -0.0073,-0.010837 -0.01367,-0.025391 -0.01596,-0.036189 -0.0349,-0.084472 -0.07227,-0.1347656 v -0.00195 c -0.0011,-0.00201 -0.02018,-0.034619 -0.05273,-0.072266 -0.0011,-0.00426 0.0015,-0.00322 0,-0.00781 -0.02165,-0.064867 -0.05667,-0.097265 -0.08398,-0.125 -0.02732,-0.027735 -0.04965,-0.050578 -0.05273,-0.054687 -0.02095,-0.027942 -0.0569,-0.068169 -0.0918,-0.1113281 -0.01745,-0.021579 -0.03426,-0.043901 -0.04687,-0.060547 -0.01261,-0.016646 -0.02228,-0.034797 -0.01563,-0.021484 0.0086,0.017182 0.0096,-0.015179 -0.0293,-0.080078 -0.02833,-0.047221 -0.05957,-0.072669 -0.08398,-0.09375 -0.02442,-0.021081 -0.04338,-0.037135 -0.04492,-0.039063 C 46.052775,7.221725 45.930544,7.1258565 45.824219,7.0195312 45.78205,6.9773621 45.744144,6.8906279 45.658203,6.8046875 45.622255,6.7687391 45.585151,6.7577046 45.564453,6.75 c -0.0207,-0.0077 -0.02761,-0.011894 -0.02148,-0.00781 -0.04395,-0.029304 -0.09454,-0.1055064 -0.160157,-0.1875 -0.077,-0.09622 -0.148039,-0.1201361 -0.166015,-0.1425781 C 45.180416,6.3666118 45.137679,6.2842336 45.064453,6.2109375 44.980859,6.1273478 44.913592,6.0953884 44.898437,6.0742187 44.895722,6.0617745 44.892269,6.0353188 44.871094,6 44.804952,5.8898053 44.71585,5.8623396 44.708984,5.8554687 h -0.002 c 0.02421,0.024204 -0.0039,-0.014166 -0.01953,-0.050781 -0.01564,-0.036615 -0.02734,-0.072227 -0.05859,-0.1191406 -0.100768,-0.1511617 -0.156765,-0.3216274 -0.220703,-0.5136719 -0.01687,-0.05068 -0.04008,-0.075543 -0.05469,-0.095703 -0.01461,-0.02016 -0.0218,-0.036105 -0.01758,-0.023437 -0.07327,-0.2198069 -0.204139,-0.4096257 -0.414062,-0.546875 -4.09e-4,-0.0055 6.1e-5,-0.013319 0,-0.013672 -1.48e-4,-8.609e-4 -0.01715,-0.048127 -0.01758,-0.048828 -4.12e-4,-6.707e-4 -0.0389,-0.039104 -0.04297,-0.042969 l -0.002,-0.00195 C 43.736635,4.3179493 43.602569,4.2840284 43.501953,4.2519531 43.501359,4.2511523 43.500673,4.2509146 43.5,4.25 c -0.0015,-0.00208 -0.0025,-0.00357 -0.0059,-0.00781 -0.0017,-0.00212 -0.0036,-0.00519 -0.0078,-0.00977 -0.0021,-0.00229 -0.0096,-0.00768 -0.0098,-0.00781 -1.44e-4,-1.298e-4 -0.02333,-0.017516 -0.02344,-0.017578 l -0.0039,-0.00195 -0.0039,-0.00195 c -0.05407,-0.026155 -0.06491,-0.017222 -0.08398,-0.017578 -0.01907,-3.562e-4 -0.03597,0.00106 -0.05273,0.00195 -0.01676,8.961e-4 -0.03228,0.00139 -0.04297,0.00195 -0.0064,3.393e-4 0.0011,0.00194 0.002,0.00195 -0.0988,-0.016425 -0.295669,-0.028172 -0.5,-0.035156 -0.102165,-0.00349 -0.202568,-0.00531 -0.289062,-0.00391 -0.08649,0.0014 -0.149896,0.00183 -0.212891,0.017578 -0.07095,0.017756 -0.11871,0.038536 -0.15625,0.044922 0,0 0,-0.00195 0,-0.00195 -0.01466,-0.00167 -0.04447,-0.00764 -0.08789,0.00586 l -0.002,0.00195 h -0.002 c -0.08111,0.027048 -0.102964,0.062209 -0.08789,0.054687 -0.0028,0.00142 -0.01969,0.00523 -0.05273,0.00977 -0.03304,0.00454 -0.08173,0.0096 -0.136719,0.037109 -0.137526,0.068762 -0.273126,0.1353758 -0.412109,0.21875 -0.05012,0.030067 -0.07888,0.064467 -0.107422,0.095703 -0.02458,0.026898 -0.04382,0.046781 -0.05273,0.056641 -0.01146,0.00189 -0.01713,0.00201 -0.03125,0.00781 -0.02806,0.011537 -0.05288,0.02942 -0.07227,0.048828 -0.09891,0.098911 -0.113121,0.1280332 -0.216797,0.1972656 -0.0282,0.018785 -0.0183,0.018224 -0.0332,0.033203 -0.0078,8.63e-4 -0.01751,0.00194 -0.01758,0.00195 -2.02e-4,4.31e-5 -0.02902,0.00964 -0.0293,0.00977 -5.62e-4,2.596e-4 -0.01684,0.01042 -0.02148,0.013672 -0.03714,0.026013 -0.04336,0.035625 -0.08398,0.076172 -7.8e-4,7.813e-4 -0.02886,0.040059 -0.0293,0.041016 -1.45e-4,3.188e-4 -0.0024,0.0091 -0.0039,0.013672 -0.0586,0.041923 -0.105441,0.078852 -0.144531,0.1113282 0,0 -0.0054,2.69e-5 -0.0039,0 l -0.04687,0.00977 C 40.326163,5.3019479 40.25755,5.3125 40.128906,5.3125 c -0.05019,0 -0.09903,0.00676 -0.146484,0.00977 -0.04745,0.00301 -0.0987,-0.013237 -0.06445,0.00391 -0.04456,-0.022277 -0.0735,-0.027567 -0.107422,-0.039063 -0.01122,-0.0038 -0.0191,-0.00668 -0.02734,-0.00977 -0.04921,-0.067743 -0.08568,-0.1157596 -0.130859,-0.2050781 -8.77e-4,-0.00508 -0.0012,-0.00897 -0.002,-0.011719 -0.0034,-0.012071 -0.0052,-0.017811 -0.0078,-0.023437 -0.0053,-0.011253 -0.01017,-0.019401 -0.01563,-0.027344 -0.0027,-0.00397 -0.0054,-0.00649 -0.0098,-0.011719 -0.0022,-0.00261 -0.0062,-0.00614 -0.0098,-0.00977 -0.0036,-0.00363 -0.01535,-0.013466 -0.01563,-0.013672 -1.26e-4,-9.38e-5 -0.01126,-0.00823 -0.01367,-0.00977 -2.23e-4,-3.097e-4 -0.0017,3.203e-4 -0.002,0 -0.0055,-0.00749 -0.0057,-0.01086 -0.01758,-0.023437 -0.0046,-0.00762 -0.01367,-0.021057 -0.02539,-0.037109 -0.01045,-0.014321 -0.04161,-0.026694 -0.06055,-0.042969 -2.92e-4,-2.512e-4 2.95e-4,-0.0017 0,-0.00195 -0.0042,-0.011814 -0.0094,-0.032884 -0.01563,-0.054687 -0.0062,-0.021804 -0.0127,-0.044023 -0.01758,-0.0625 -0.001,-0.00396 -0.0013,-0.00695 -0.002,-0.00977 -1.28e-4,-5.346e-4 1.21e-4,-0.00144 0,-0.00195 -5.4e-5,-0.00128 -0.0018,-0.0026 -0.002,-0.00391 -0.0018,-0.00758 -0.0026,-0.013616 -0.0078,-0.029297 -0.0016,-0.00478 -0.0076,-0.019005 -0.0078,-0.019531 -2.61e-4,-5.261e-4 -0.0271,-0.036869 -0.02734,-0.037109 -1.4e-5,-1.4e-5 -0.003,-0.00326 -0.0039,-0.00391 -0.0052,-0.00573 -0.0061,-0.015259 -0.01172,-0.019531 -0.03664,-0.027782 -0.06061,-0.017819 -0.08789,-0.019531 -0.01075,-0.00662 -0.02506,-0.022237 -0.03125,-0.025391 -0.01519,-0.00774 -0.01573,-0.0099 -0.0039,0.00195 -0.02154,-0.021595 -0.03698,-0.062212 -0.0918,-0.1171875 -0.02966,-0.029872 -0.04164,-0.030818 -0.05469,-0.037109 -0.0036,-0.00172 -0.0064,-0.0024 -0.0098,-0.00391 l -0.03125,-0.03125 c -0.01468,-0.014417 -0.0287,-0.028965 -0.04297,-0.042969 l -0.0098,-0.00977 -0.01172,-0.00586 c -0.01921,-0.012342 -0.02773,-0.00491 -0.04492,-0.00781 l -0.02344,-0.015625 c 0.01447,0.00966 0.0085,0.00776 -0.0039,-0.00781 -0.01238,-0.015576 -0.03086,-0.045825 -0.08008,-0.070312 -0.04783,-0.02394 -0.06986,-0.024149 -0.09375,-0.029297 -0.01029,-0.011279 -0.02905,-0.031073 -0.0293,-0.03125 -3.22e-4,-2.292e-4 -0.04445,-0.019406 -0.04492,-0.019531 -0.04175,-0.010866 -0.07568,-0.00765 -0.0918,-0.00586 -0.01176,0.00131 -0.0067,0.00159 -0.0039,0.00195 0.02624,0.0049 -0.01217,-0.00961 -0.05469,-0.03125 -0.07008,-0.035614 -0.115073,-0.017347 -0.138672,-0.013672 -0.0236,0.00368 -0.03051,-0.00366 0.0039,0.00781 -0.02848,-0.00954 -0.02894,-0.00751 -0.04102,-0.00977 -0.0072,-0.00134 -0.01559,-0.00251 -0.02344,-0.00391 -1.4e-5,-1.49e-5 -0.0017,-0.00179 -0.002,-0.00195 -0.0041,-0.00291 -0.03637,-0.025559 -0.03906,-0.027344 h -0.002 c -0.03432,-0.01547 -0.05005,-0.015448 -0.06836,-0.017578 -0.0199,-0.00232 -0.04128,-0.00293 -0.06445,-0.00391 -0.04634,-0.00195 -0.09993,-0.00266 -0.154297,-0.00195 -0.05437,7.088e-4 -0.108265,0.00363 -0.152344,0.00586 -0.02204,0.00111 -0.04187,0.00248 -0.05859,0.00391 -0.01672,0.00143 -0.02479,-6.414e-4 -0.05078,0.00586 -0.02111,0.00526 -0.01647,0.012574 -0.0293,0.021484 -0.01835,-0.00331 -0.0498,-0.010734 -0.09961,0.00586 -0.04968,0.01662 -0.10952,0.030098 -0.173828,0.042969 -0.129969,0.026045 -0.192139,0.089062 -0.21875,0.095703 -0.22594,0.056486 -0.473807,0.1973981 -0.644531,0.3339844 -0.0362,0.028986 -0.144777,0.049041 -0.248047,0.1523437 -0.02256,0.022546 -0.02188,0.034065 -0.02734,0.048828 -0.0133,0.012118 -0.08655,0.063563 -0.140625,0.099609 v 0.00195 c -0.09239,0.061606 -0.124698,0.1382628 -0.148437,0.1679688 -0.02649,0.033097 -0.07894,0.055433 -0.15625,0.1328125 -0.07799,0.077994 -0.10844,0.1553197 -0.119141,0.1660156 0.01653,-0.016559 -0.0154,-0.010019 -0.07227,0.046875 -7e-4,7e-4 -0.03293,0.055788 -0.0332,0.056641 -4.2e-5,1.319e-4 -0.0012,0.0043 -0.002,0.00781 -0.0081,0.0088 -0.0069,0.00788 -0.02148,0.021484 -0.02782,0.025966 -0.0642,0.058039 -0.101563,0.089844 -0.07472,0.06361 -0.163806,0.1313472 -0.177734,0.140625 -0.08633,0.057823 -0.130194,0.1115639 -0.164063,0.1621093 -0.0075,0.011209 -0.05883,0.068704 -0.111328,0.1171875 -0.0525,0.048483 -0.110219,0.097302 -0.136719,0.1171875 -0.02384,0.01788 -0.03539,0.027366 -0.04297,0.033203 1.61e-4,-9.53e-5 -0.0021,7.616e-4 -0.0039,0.00195 -0.0036,0.00276 -0.006,0.0054 -0.0039,0.00391 -0.01266,0.0058 -0.01743,0.00538 -0.05078,0.025391 -0.03377,0.020258 -0.125302,0.05938 -0.197266,0.1074218 -0.276868,0.1845813 -0.570503,0.329881 -0.880859,0.4628907 -0.208588,0.089393 -0.35975,0.1888665 -0.546875,0.2304687 -0.07738,0.017139 -0.185061,0.023385 -0.279297,0.033203 a 0.1322915,0.1322915 0 0 0 -0.117187,0.1464844 0.1322915,0.1322915 0 0 0 0.144531,0.1171875 c 0.08428,-0.00878 0.201003,-0.014801 0.310547,-0.039063 0.24108,-0.053598 0.411358,-0.1659739 0.59375,-0.2441406 0.319083,-0.13675 0.626651,-0.2895098 0.921875,-0.4863281 0.0296,-0.019758 0.120581,-0.06142 0.1875,-0.1015625 0.04912,-0.029462 0.02901,-0.018753 0.03125,-0.019531 2.8e-4,-9.72e-5 0.02502,-0.011502 0.02539,-0.011719 3.66e-4,-2.166e-4 0.0094,-0.00613 0.01172,-0.00781 0.0046,-0.00336 0.0063,-0.00511 0.0098,-0.00781 0.007,-0.0054 0.02012,-0.014605 0.04492,-0.033203 0.04053,-0.030415 0.09767,-0.078716 0.15625,-0.1328125 0.05857,-0.054096 0.114294,-0.104382 0.154296,-0.1640625 0.03327,-0.049654 0.02285,-0.045619 0.0918,-0.091797 0.04852,-0.032322 0.120189,-0.090921 0.199219,-0.1582032 0.03952,-0.033641 0.0789,-0.067386 0.111328,-0.097656 0.03243,-0.03027 0.05454,-0.046651 0.08203,-0.087891 v -0.00195 l 0.002,-0.00195 c 1.81e-4,-2.881e-4 0.003,-0.010096 0.0059,-0.017578 0.0094,-0.00243 0.01038,0.00725 0.04687,-0.029297 0.07774,-0.077704 0.104543,-0.1553229 0.117187,-0.1679687 0.03859,-0.03862 0.104585,-0.063381 0.175782,-0.1523438 0.0517,-0.064694 0.07732,-0.1068804 0.08984,-0.1152344 0.04688,-0.03125 0.123193,-0.072411 0.185547,-0.1347656 0.02384,-0.023804 0.02411,-0.035945 0.0293,-0.050781 0.02747,-0.023785 0.116588,-0.045545 0.220703,-0.1289063 0.138885,-0.1111134 0.379157,-0.2422493 0.542969,-0.2832031 0.124049,-0.030959 0.17931,-0.088195 0.207031,-0.09375 0.06859,-0.013729 0.137577,-0.030154 0.205078,-0.052734 -0.02466,0.00822 -0.0299,0.00336 -0.01367,0.00586 0.01623,0.0025 0.0547,0.012347 0.109375,-0.00586 h 0.002 0.002 c 0.01819,-0.00686 0.01273,-0.011195 0.02344,-0.019531 0.01162,-9.228e-4 0.02726,-0.00301 0.04492,-0.00391 0.0399,-0.00202 0.09148,-0.00324 0.142578,-0.00391 0.0511,-6.662e-4 0.100357,-0.00161 0.138672,0 0.0025,1.042e-4 0.0035,-1.161e-4 0.0059,0 0.01206,0.00903 0.02706,0.021345 0.02734,0.021484 0.0035,0.00152 0.01711,0.00647 0.02148,0.00781 0.0049,0.00149 0.0083,0.00308 0.01172,0.00391 0.0067,0.00166 0.01323,0.00264 0.01953,0.00391 0.01261,0.00253 0.02745,0.0054 0.04102,0.00781 0.01357,0.00242 0.02538,0.00404 0.03516,0.00586 0.0098,0.00182 0.02777,0.00734 0.0059,0 0.06741,0.022471 0.101834,0.00691 0.121094,0.00391 0.01926,-0.003 0.0177,0.00819 -0.02148,-0.011719 0.01131,0.00576 0.04306,0.041341 0.125,0.056641 h 0.002 c 0.02021,0.00356 0.02569,6.509e-4 0.03906,0 0.01921,0.013018 0.03912,0.02639 0.05273,0.03125 0.01964,0.00701 0.03665,0.011584 0.05273,0.015625 0.0268,0.00673 0.04275,0.012803 0.03906,0.00977 0.0075,0.00945 0.02674,0.030444 0.05078,0.050781 0.009,0.01309 0.0058,0.025756 0.02148,0.037109 0.02187,0.015832 0.0358,0.00679 0.05664,0.00977 1.33e-4,1.9e-5 -1.32e-4,0.00193 0,0.00195 0.0019,0.00294 0.0271,0.034277 0.0293,0.037109 0.02983,0.029595 0.0418,0.030944 0.05469,0.037109 0.01289,0.00617 0.02324,0.01143 0.0332,0.015625 0.0058,0.00246 0.0095,0.00402 0.01367,0.00586 0.01333,0.016629 0.03131,0.052662 0.08398,0.1054687 0.03076,0.030835 0.05707,0.039384 0.06836,0.044922 3.74e-4,1.834e-4 0.0016,0.00178 0.002,0.00195 l 0.01563,0.021484 c 0.0019,0.022795 -0.0036,0.043685 0.01172,0.066406 0.0041,0.00604 0.01704,0.018982 0.01758,0.019531 5.39e-4,5.495e-4 0.03465,0.027081 0.03516,0.027344 4.7e-5,2.45e-5 0.0048,0.0017 0.0059,0.00195 6.55e-4,0.00188 0.0013,0.004 0.002,0.00586 0.0041,0.01142 0.0067,0.021206 0.01367,0.035156 0.0035,0.00698 0.0085,0.015326 0.01758,0.027344 0.0046,0.00601 0.02096,0.021031 0.02148,0.021484 4.37e-4,3.752e-4 0.03027,0.018757 0.04297,0.025391 0.0027,0.00363 0.0062,0.010474 0.01172,0.019531 0.0055,0.00906 0.0088,0.019446 0.03516,0.044922 -0.0024,-0.00229 0.013,0.020812 0.03906,0.048828 0.0016,0.00339 0.002,0.00598 0.0039,0.00977 0.06226,0.1252548 0.118396,0.1936876 0.175781,0.2734375 v 0.00195 c 3.95e-4,5.469e-4 0.01239,0.014576 0.01758,0.019531 0.0052,0.00496 0.0096,0.00862 0.01367,0.011719 0.0082,0.0062 0.0136,0.010342 0.01953,0.013672 0.01186,0.00666 0.02157,0.00963 0.03125,0.013672 0.01937,0.00809 0.03952,0.01502 0.05859,0.021484 0.03815,0.012929 0.08522,0.031868 0.07227,0.025391 0.08779,0.043944 0.1409,0.027132 0.199219,0.023437 0.05832,-0.00369 0.118391,-0.00977 0.130859,-0.00977 0.133097,0 0.24614,-0.021071 0.369141,-0.066406 -0.0025,7.279e-4 -0.0069,0.00365 -0.0078,0.00391 0.0041,4.7e-6 0.0098,-2e-5 0.01563,0 0.0058,2e-5 0.01096,-5.3e-6 0.01563,0 0.0023,2.6e-6 0.0059,9.9e-6 0.0078,0 l 0.08398,-0.029297 c 0.06223,-0.049722 0.116049,-0.100021 0.191406,-0.1503906 l -0.07813,0.021484 c 0.02832,0.00121 0.07374,0.00176 0.119141,-0.042969 0.01114,-0.010977 0.0036,-0.019205 0.0098,-0.03125 0.01448,-0.00647 0.03496,-0.012897 0.04492,-0.019531 0.08047,-0.053593 0.09975,-0.097748 0.09375,-0.09375 0.120335,-0.080357 0.164922,-0.138632 0.248046,-0.2226562 0.01161,-0.00177 0.01833,1.613e-4 0.0332,-0.00586 0.02806,-0.011356 0.05279,-0.029488 0.07227,-0.048828 0.02506,-0.025031 0.04532,-0.050956 0.06836,-0.076172 0.02304,-0.025216 0.04887,-0.048072 0.04687,-0.046875 0.126732,-0.076026 0.255731,-0.139586 0.394531,-0.2089844 0.0056,-0.00279 0.02432,-0.00728 0.05664,-0.011719 0.03232,-0.00444 0.07999,-0.00778 0.134766,-0.035156 0.05633,-0.02811 0.05742,-0.036714 0.04492,-0.035156 0.01221,0.0018 0.02845,0.00548 0.06055,0 0.08004,-0.013615 0.135646,-0.040737 0.175781,-0.050781 0.0036,-9.009e-4 0.07267,-0.00847 0.152344,-0.00977 0.07968,-0.00129 0.178366,5.233e-4 0.277344,0.00391 0.197954,0.00677 0.409048,0.023928 0.464843,0.033203 l -0.0039,-0.00195 c 0.04728,0.0089 0.04447,0.0027 0.05859,0.00195 0.01412,-7.47e-4 0.02887,-0.0012 0.04297,-0.00195 0.0047,-2.513e-4 0.0074,1.65e-4 0.01172,0 0.01274,0.014935 0.01666,0.029181 0.05859,0.042969 0.100078,0.033368 0.201595,0.068631 0.279297,0.109375 l 0.02344,0.023437 c -0.01067,-0.01081 -5.34e-4,0.019264 0.05859,0.048828 0.187213,0.093603 0.256351,0.2338956 0.332031,0.4609375 0.01681,0.050467 0.03803,0.075411 0.05273,0.095703 0.0147,0.020292 0.02206,0.036907 0.01758,0.023437 0.06368,0.1912751 0.128235,0.3876545 0.253906,0.5761718 -0.005,-0.00751 0.01589,0.035642 0.0332,0.076172 0.01732,0.04053 0.0221,0.078762 0.07813,0.1347656 0.07412,0.074173 0.113421,0.08682 0.117188,0.089844 0.0027,0.012816 0.0085,0.03962 0.0293,0.074219 0.07461,0.1243543 0.18137,0.1637938 0.208984,0.1914063 0.03067,0.030704 0.07423,0.1064252 0.132813,0.1796875 0.07702,0.096158 0.148074,0.1201586 0.166015,0.1425781 0.04898,0.061206 0.10745,0.164718 0.220703,0.2402344 0.03552,0.023682 0.06302,0.032214 0.07617,0.037109 0.01315,0.0049 0.009,0.00509 -0.002,-0.00586 0.03826,0.038259 0.07827,0.127093 0.166016,0.2148437 0.120314,0.1203146 0.234139,0.207709 0.324218,0.3203125 0.02946,0.036772 0.05732,0.058208 0.07813,0.076172 0.02081,0.017964 0.03214,0.034038 0.0293,0.029297 -0.01314,-0.0219 -0.01146,-0.00144 0.01953,0.060547 0.01551,0.031013 0.02532,0.043735 0.04102,0.064453 0.0157,0.020718 0.03446,0.043811 0.05273,0.066406 0.03654,0.045191 0.07608,0.092978 0.08398,0.1035157 0.02912,0.038791 0.05643,0.061987 0.07617,0.082031 0.0181,0.018374 0.02394,0.029763 0.02148,0.021484 -0.0019,0.019367 -0.0092,0.032107 0.0078,0.066406 l 0.002,0.00391 0.002,0.00195 c 2.5e-4,4.375e-4 0.02702,0.034866 0.02734,0.035156 2.93e-4,2.63e-4 0.02899,0.017647 0.03516,0.021484 0.0056,0.00971 9.7e-4,0.00715 0.01758,0.029297 0.0079,0.010578 0.02474,0.042645 0.04297,0.083984 0.01823,0.04134 0.03794,0.092654 0.08789,0.1425781 7.5e-4,7.5e-4 0.03821,0.026934 0.03906,0.027344 1.59e-4,7.61e-5 0.0061,0.00132 0.0078,0.00195 0.0046,0.00801 0.0083,0.016153 0.01367,0.025391 0.0082,0.014281 0.01743,0.02798 0.02539,0.041016 0.004,0.00652 0.0075,0.013202 0.01172,0.019531 0.0042,0.00633 0.0031,0.0089 0.02148,0.027344 0.03574,0.035743 0.05387,0.043325 0.07227,0.058594 0.01136,0.00943 0.0065,-0.00137 0.0059,-0.00391 -0.0024,0.017301 -0.0079,0.050919 0.0078,0.097656 0.01452,0.04447 0.0161,0.061344 0.03906,0.099609 0.0029,0.00486 0.0078,0.010328 0.01367,0.017578 0.0029,0.00362 0.0095,0.013426 0.0098,0.013672 2.51e-4,2.461e-4 0.0193,0.013513 0.01953,0.013672 2.31e-4,1.588e-4 0.03104,0.015549 0.03125,0.015625 7e-5,2.51e-5 0.0088,8.045e-4 0.01563,0.00195 0.005,0.01019 0.0085,0.018608 0.01367,0.029297 0.02922,0.060667 0.05692,0.1213371 0.07031,0.1484375 0.02345,0.047536 0.05471,0.069818 0.07031,0.082031 0.01561,0.012213 0.01766,0.015638 0.0098,0.00391 -0.0026,-0.00389 0.0045,0.012758 0.01563,0.042969 0.01109,0.030211 0.02794,0.076595 0.07031,0.1191406 4.41e-4,4.413e-4 0.01824,0.011599 0.03516,0.021484 0.0056,0.00906 0.0099,0.01163 0.01953,0.03125 0.01595,0.032645 0.03632,0.081283 0.08203,0.1269531 3.19e-4,3.193e-4 0.01286,0.00832 0.02539,0.015625 0.0049,0.013142 0.0044,0.017744 0.02539,0.052734 0.05174,0.086313 0.105999,0.1107426 0.103515,0.1074219 0.11178,0.1490263 0.233078,0.314235 0.41211,0.4335941 0.139913,0.09324 0.289307,0.15833 0.417969,0.222656 0.0489,0.02445 0.07742,0.01389 0.09766,0.0098 0.02282,0.0087 0.05868,0.02672 0.107422,0.04297 0.06558,0.02192 0.103608,0.0069 0.123047,0.0039 0.01944,-0.003 0.01635,0.0089 -0.01953,-0.0078 0.0579,0.02707 0.112713,0.03178 0.150391,0.03516 0.03768,0.0034 0.06082,0.0053 0.08594,0.01367 0.05958,0.01992 0.09854,0.0088 0.119141,0.0059 0.0206,-0.003 0.02236,0.0023 -0.002,-0.0059 0.04851,0.0162 0.115067,0.04547 0.189453,0.07031 0.0827,0.0275 0.128467,0.02004 0.140625,0.02344 0.09398,0.03173 0.176583,0.01811 0.242188,0.0098 0.0656,-0.0083 0.116617,-0.01089 0.136718,-0.0059 0.28113,0.07027 0.604294,0.03233 0.853516,-0.05078 -0.03885,0.01311 -0.02757,0.0039 -0.0098,0.0059 0.01747,0.002 0.0435,0.01364 0.103516,-0.0059 0.0961,-0.03199 0.156977,-0.07469 0.212891,-0.09375 h 0.002 v -0.002 c 0.02011,0.0011 0.0308,0.0093 0.0625,-0.0078 0.07062,-0.03769 0.101958,-0.07554 0.0918,-0.07031 0.01102,-0.0057 0.08446,-0.0083 0.169921,-0.07422 l 0.002,-0.002 0.002,-0.002 c 4.6e-5,-3.9e-5 0.0031,-0.003 0.0039,-0.0039 0.0058,-0.0017 0.0055,6.99e-4 0.01172,-0.002 0.0043,-0.0027 0.03683,-0.02123 0.03711,-0.02149 2.65e-4,-2.42e-4 0.02014,-0.02817 0.02539,-0.03516 0.01276,-0.0059 0.0256,-0.0112 0.04102,-0.01758 0.04215,-0.01745 0.08868,-0.03404 0.09766,-0.03711 0.03145,-0.01046 0.07264,-0.02674 0.115234,-0.04687 0.0426,-0.02014 0.07985,-0.03316 0.126953,-0.080079 1.69e-4,-1.687e-4 0.005,-0.00898 0.0078,-0.013672 0.01601,-0.00488 0.03983,-0.00138 0.05273,-0.00781 0.02638,-0.013141 0.05946,-0.035799 0.0918,-0.064453 0.0043,-0.00114 0.0032,0.00158 0.0078,0 0.04005,-0.01321 0.05362,-0.025211 0.07422,-0.039063 0.0206,-0.013852 0.04168,-0.029676 0.0625,-0.044922 0.04164,-0.030492 0.0893,-0.062223 0.09375,-0.064453 0.01328,-0.00664 0.02195,-0.012407 0.03125,-0.017578 0.0046,-0.00259 0.01013,-0.00427 0.01563,-0.00781 0.0055,-0.00354 0.02268,-0.018804 0.02344,-0.019531 3.77e-4,-3.639e-4 0.02524,-0.032932 0.02539,-0.033203 8e-6,-1.36e-5 0.0017,-0.00317 0.002,-0.00391 0.01301,-0.00711 0.01748,1.752e-4 0.03125,-0.013672 4.13e-4,-4.127e-4 0.01007,-0.017023 0.01953,-0.033203 0.008,-0.00448 0.0077,-0.0038 0.02539,-0.011719 0.03149,-0.014098 0.07223,-0.025483 0.121094,-0.074219 0.112351,-0.1121285 0.209693,-0.2311778 0.322266,-0.34375 -0.01486,0.014856 -0.0067,0.00363 0.0059,-0.00391 0.01251,-0.00753 0.03134,-0.017783 0.05273,-0.029297 0.04279,-0.023027 0.09727,-0.051095 0.148438,-0.078125 0.05116,-0.02703 0.09876,-0.050615 0.136719,-0.076172 0.01898,-0.012779 0.03423,-0.00522 0.06836,-0.070312 0.0037,-0.00708 0.0081,-0.022287 0.0098,-0.027344 2.49e-4,-7.565e-4 0.0019,-0.00383 0.002,-0.00391 0.05117,-0.048114 0.102696,-0.094017 0.152343,-0.1503906 0.07303,-0.082923 0.160963,-0.1642429 0.164063,-0.1660156 0.09309,-0.053234 0.148166,-0.1156735 0.1875,-0.140625 0.01237,-0.0027 0.04082,-0.0062 0.07617,-0.027344 0.04966,-0.029747 0.07095,-0.064852 0.08398,-0.082031 0.0031,-0.00404 -0.0019,1.552e-4 0,-0.00195 0.01807,-1.423e-4 0.0222,0.00727 0.04883,-0.00586 0.0847,-0.042351 0.195129,-0.1248591 0.234375,-0.1542969 0.04369,-0.032769 0.0665,-0.066453 0.08203,-0.085937 0.01141,-0.014324 0.01111,-0.014715 0.01172,-0.015625 0.01838,1.518e-4 0.0231,0.00779 0.05078,-0.00586 h 0.002 c 0.0641,-0.032051 0.09838,-0.070932 0.136718,-0.1054687 0.03834,-0.034536 0.08526,-0.064182 0.06641,-0.056641 v 0.00195 c 0.142429,-0.056918 0.243967,-0.1247418 0.359375,-0.2011719 0.0051,-6.01e-5 0.01,3.806e-4 0.01367,0 0.02314,-0.00239 0.03238,-0.00793 0.04297,-0.011719 0.02118,-0.00758 0.04036,-0.015304 0.06836,-0.029297 0.04353,-0.021719 0.08213,-0.065366 0.09375,-0.083984 0.01162,-0.018619 -0.0029,6.682e-4 -0.0078,0.00391 0.13315,-0.088736 0.218738,-0.178705 0.31836,-0.2285156 0.05188,-0.025941 0.07631,-0.068523 0.08789,-0.091797 0.01158,-0.023274 0.01671,-0.035786 0.0098,-0.025391 -0.0072,0.010715 0.002,-6.108e-4 0.02148,-0.013672 0.01951,-0.013061 0.04578,-0.026148 0.08008,-0.060547 0.03728,-0.037461 0.04581,-0.066985 0.05469,-0.087891 0.0089,-0.020906 0.01915,-0.037485 0.0098,-0.023437 0.0058,-0.00861 0.0035,-0.00645 0.01563,-0.013672 0.01208,-0.00722 0.04376,-0.019742 0.08008,-0.056641 0.03735,-0.038062 0.05767,-0.090557 0.0625,-0.1054687 0.0048,-0.014911 -0.0049,0.00297 0.0039,-0.00586 0.0107,-0.010849 0.0051,-0.00667 0.0098,-0.011719 0.0122,-0.00478 0.02524,-0.00967 0.02539,-0.00977 2.55e-4,-1.542e-4 0.04084,-0.038805 0.04102,-0.039063 1.79e-4,-2.573e-4 0.01944,-0.044547 0.01953,-0.044922 v -0.00195 l 0.002,-0.00195 c 0.0083,-0.037924 0.0025,-0.057201 0,-0.072266 0.02399,-0.016609 0.03937,-0.020335 0.05273,-0.046875 h 0.002 c 0.02012,-0.040114 0.023,-0.067362 0.0293,-0.089844 0.0063,-0.022482 0.01805,-0.040376 0.0059,-0.023437 0.01943,-0.026968 0.0476,-0.048717 0.07617,-0.1074218 0.02751,-0.05653 0.02603,-0.1013745 0.02734,-0.1328125 0.0013,-0.031438 0.0056,-0.052105 0.0039,-0.046875 h -0.002 c 0.04678,-0.1391051 0.111243,-0.2352794 0.199218,-0.3671875 0.01352,-0.00775 0.0447,-0.021264 0.07813,-0.054687 0.0219,-0.021901 0.0411,-0.043451 0.06055,-0.064453 0.01945,-0.021002 0.04453,-0.040002 0.0332,-0.033203 0.193941,-0.1163602 0.394825,-0.2372771 0.591797,-0.3554687 0.02522,-0.015103 0.02977,-0.025468 0.03906,-0.037109 0.01455,-4.857e-4 0.01641,0.00608 0.03711,-0.00195 0.114992,-0.046045 0.193002,-0.097593 0.261719,-0.1113282 -0.01487,0.00288 -0.01283,-3.69e-4 0.0059,0.00195 0.01869,0.00232 0.05621,0.010561 0.105469,-0.00586 0.06477,-0.021551 0.128509,-0.050598 0.183594,-0.078125 -0.02625,0.013126 -0.0032,0.00192 0.02539,0 0.02862,-0.00192 0.06243,2.29e-5 0.115235,-0.017578 -0.02235,0.00748 0.017,3.231e-4 0.05078,0.00195 0.03378,0.00163 0.06539,0.00586 0.101562,0.00586 0.05574,0 0.11017,-0.00874 0.160157,-0.011719 0.04999,-0.00298 0.09482,0.00231 0.09961,0.00391 0.106347,0.035479 0.256645,0.052492 0.416016,0.0625 0.15937,0.010008 0.312321,0.010972 0.425781,-0.011719 0.09859,-0.019807 0.170998,-0.062873 0.205078,-0.074219 0.119668,-0.039936 0.243144,-0.050271 0.396484,-0.1269532 -0.123367,0.061968 0.169972,-0.041075 0.175782,-0.046875 1.75e-4,-1.753e-4 0.0056,-0.011968 0.0098,-0.019531 0.0183,-0.00756 0.04,-0.014637 0.0625,-0.023437 0.05209,-0.020375 0.113127,-0.042917 0.113282,-0.042969 0.08279,-0.027568 0.144829,-0.073507 0.199218,-0.1113281 0.05439,-0.037821 0.101025,-0.067529 0.132813,-0.078125 0.240719,-0.080281 0.500747,-0.1838429 0.734375,-0.2617187 0.0295,-0.00983 0.05208,-0.023569 0.05859,-0.027344 1.82e-4,3.16e-5 0.003,-6.292e-4 0.002,0 h 0.0039 l 0.01563,-0.00586 c 0.0015,-6.305e-4 0.04173,-0.00666 0.08984,-0.00586 0.04811,7.964e-4 0.0999,0.007 0.162109,-0.00195 0.08054,-0.011488 0.204379,0.018904 0.355469,0 0.320655,-0.040038 0.659544,-0.023437 1.003906,-0.023437 h 0.002 l 1.609375,-0.082031 1.177735,0.082031 c 0.101474,0.00708 0.240618,-0.00207 0.378906,-0.00781 0.138288,-0.00574 0.282468,-0.0031 0.310547,0.00391 0.05885,0.014688 0.123923,0.034471 0.195312,0.048828 0.257327,0.051485 0.487112,-0.030714 0.640625,0 0.197889,0.039617 0.371458,0.00338 0.501953,0.025391 0.220426,0.036718 0.437691,0.025391 0.640625,0.025391 0.06285,0 0.247945,0.0091 0.425782,0.013672 0.08892,0.00228 0.176634,0.00374 0.251953,0.00195 0.07532,-0.00179 0.126632,-0.00115 0.193359,-0.023437 0.0049,-0.00165 0.0484,-0.00571 0.103516,-0.019531 0.02432,-0.00608 0.06793,-0.00524 0.130859,-0.027344 0.03573,-0.01255 0.09552,-0.018211 0.167969,-0.023437 0.07245,-0.00523 0.159721,-0.010392 0.248047,-0.054687 a 0.1322915,0.1322915 0 0 0 0.05859,-0.1777344 0.1322915,0.1322915 0 0 0 -0.177734,-0.058594 c -0.02852,0.014305 -0.08089,0.022471 -0.148437,0.027344 -0.06755,0.00487 -0.148492,0.00626 -0.236329,0.037109 -0.01735,0.0061 -0.04738,0.00696 -0.105468,0.021484 h -0.002 c -0.01349,0.00338 -0.06098,0.00464 -0.123047,0.025391 0.01269,-0.00424 -0.04777,0.00621 -0.115235,0.00781 -0.06747,0.0016 -0.153516,2.748e-4 -0.240234,-0.00195 -0.173436,-0.00446 -0.347179,-0.013672 -0.431641,-0.013672 -0.211364,0 -0.412709,0.009 -0.595703,-0.021484 -0.197924,-0.033387 -0.369349,0.00155 -0.49414,-0.023437 -0.256545,-0.051329 -0.487115,0.029939 -0.640625,0 -0.05491,-0.011043 -0.118594,-0.02821 -0.185547,-0.044922 -0.112931,-0.028191 -0.242873,-0.019565 -0.384766,-0.013672 -0.141893,0.00589 -0.288579,0.014026 -0.349609,0.00977 z M 43.873047,4.4394531 c 0.03913,0.019564 0.03624,0.028763 0.0098,0.00195 l 0.0098,0.025391 c -0.01106,-0.00619 -0.0079,-0.021532 -0.01953,-0.027344 z m -4.455078,0.3769531 c 0.01489,0.00785 0.03158,0.01786 0.03125,0.017578 -5.29e-4,-4.536e-4 0.01417,0.013088 0.01758,0.017578 0.0038,0.00497 0.0026,0.00556 0.0039,0.00781 -0.01703,-0.014322 -0.02846,-0.028994 -0.05273,-0.039063 1.47e-4,-0.0011 -1.28e-4,-0.00285 0,-0.00391 z m 1.464843,0.3828125 c -0.0013,0.00929 -0.0082,0.036113 -0.0078,0.035156 -0.001,3.346e-4 -0.0022,0.00139 -0.0039,0.00195 0.0016,-0.012771 0.01236,-0.028589 0.01172,-0.037109 z M 35.625,5.4882812 c 0.0015,0.00785 0.0034,0.019699 0.0039,0.021484 8.83e-4,0.00307 -0.0023,-5.291e-4 -0.0039,-0.015625 -1.54e-4,-0.00141 -2e-6,-0.00347 0,-0.00586 z m 20.123047,1.1796875 c 5.45e-4,-0.00147 -0.0021,0.0053 -0.01367,0.017578 -0.01239,0.013166 -0.0336,0.02288 -0.03516,0.023437 -0.0014,5.084e-4 0.0278,-0.026997 0.04883,-0.041016 z m -1.023438,0.7519532 c 0.0043,7.345e-4 0.0099,0.00199 0.0098,0.00195 -3.65e-4,-1.118e-4 0.0471,0.025585 0.04687,0.025391 -7.2e-5,-6.28e-5 0.0083,0.00946 0.01367,0.017578 -0.02247,0.013244 -0.04687,0.027344 -0.04687,0.027344 0,0 0.02631,-0.00983 0.05078,-0.019531 0.01047,0.015675 0.02154,0.0314 0.02148,0.03125 -4.8e-5,-1.459e-4 0.0023,0.014787 0.0039,0.029297 -0.03464,-0.018222 -0.07617,-0.041016 -0.07617,-0.041016 -3.7e-5,4.9e-6 -0.0116,-0.036911 -0.02344,-0.072266 z m -3.271484,2.46875 c -0.0018,-0.00287 0.03245,0.022383 0.05859,0.042969 -0.0035,-7.179e-4 -0.01188,-0.00203 -0.01172,-0.00195 4.35e-4,2.189e-4 -0.02382,-0.013986 -0.02344,-0.013672 3.83e-4,3.143e-4 -0.01025,-0.00978 -0.01367,-0.013672 -0.0069,-0.00778 -0.0091,-0.012567 -0.0098,-0.013672 z"
       id="path80732" />
    <ellipse
       style="fill:#ff6e00;fill-opacity:1;stroke:#ff0000;stroke-width:0.00543804;stroke-miterlimit:4;stroke-dasharray:none;stroke-dashoffset:0;stroke-opacity:1;stop-color:#000000"
       id="path58669"
       cx="-0.47394216"
       cy="4.3459139"
       rx="0.14243531"
       ry="0.20875017"
       transform="rotate(-25.179344)" />
    <path
       id="path58669-9"
       style="stroke:#ff0000;stroke-width:0.0141377;stop-color:#000000;stroke-opacity:1;fill:#ff6e00;fill-opacity:1"
       d="m 1.0769028,3.1408927 c 0.144738,0.5018046 0.203365,0.6428818 0.252087,0.8391051 0.04702,0.1894402 -0.291072,-0.2398961 -0.41500302,-0.7755251 -0.123932,-0.5356388 -0.08034,-0.9571748 -0.03379,-1.1641825 0.04281,-0.1904136 0.05046,0.5935744 0.19670602,1.1006025 z"
       sodipodi:nodetypes="sssss" />
    <path
       id="path58669-9-0"
       style="stroke:#ff0000;stroke-width:0.0141377;stop-color:#000000;stroke-opacity:1;fill:#ff6e00;fill-opacity:1"
       d="m 1.4111298,3.0937589 c 0.02219,0.5218 0.04585,0.67273 0.04688,0.87491 9.72e-4,0.19519 -0.226213,-0.30183 -0.220197,-0.85157 0.006,-0.54976 0.147888,-0.9491 0.241983,-1.13926 0.08655,-0.17493 -0.09112,0.5887 -0.06866,1.11592 z"
       sodipodi:nodetypes="sssss" />
    <path
       id="path58669-9-0-8"
       style="stroke:#ff0000;stroke-width:0.0141377;stop-color:#000000;stroke-opacity:1;fill:#ff6e00;fill-opacity:1"
       d="m 1.8008648,3.0618689 c -0.02219,0.5218 -0.04585,0.67273 -0.04688,0.87491 -9.72e-4,0.19519 0.226213,-0.30183 0.220197,-0.85157 -0.006,-0.54976 -0.147888,-0.9491 -0.241983,-1.13926 -0.08655,-0.17493 0.09112,0.5887 0.06866,1.11592 z"
       sodipodi:nodetypes="sssss" />
    <ellipse
       style="fill:#ff6e00;fill-opacity:1;stroke:#ff0000;stroke-width:0.00543804;stroke-miterlimit:4;stroke-dasharray:none;stroke-dashoffset:0;stroke-opacity:1;stop-color:#000000"
       id="path58669-3"
       cx="-3.3008122"
       cy="2.9839206"
       rx="0.14243531"
       ry="0.20875017"
       transform="matrix(-0.90498049,-0.42545306,-0.42545306,0.90498049,0,0)" />
  </g>
</svg>
